# MagicaVoxel @ Ephtracy

# group
o 

# material
mtllib shore_straight(corner).mtl
usemtl palette

# normals
vn -1 0 0
vn 1 0 0
vn 0 0 1
vn 0 0 -1
vn 0 -1 0
vn 0 1 0

# texcoords
vt 0.00195313 0.5
vt 0.0214844 0.5
vt 0.341797 0.5
vt 0.373047 0.5
vt 0.751953 0.5
vt 0.966797 0.5

# verts
v 0 0.1 0
v 0 0.1 -0.8
v 0 0.1 -4
v 0 0.3 0
v 0 0.3 -0.8
v 0 0.3 -4
v 4 0.1 0
v 4 0.1 -4
v 4 0.2 -0.3
v 4 0.2 -0.4
v 4 0.3 0
v 4 0.3 -0.3
v 4 0.3 -0.4
v 4 0.3 -4
v 0 0.1 0
v 0 0.3 0
v 2.2 0.2 0
v 2.2 0.3 0
v 2.3 0.2 0
v 2.3 0.3 0
v 3.4 0.1 0
v 3.4 0.3 0
v 3.6 0.1 0
v 3.6 0.3 0
v 4 0.1 0
v 4 0.3 0
v 0 0.1 -4
v 0 0.3 -4
v 0.4 0.2 -4
v 0.4 0.3 -4
v 0.6 0.2 -4
v 0.6 0.3 -4
v 2 0.1 -4
v 2 0.3 -4
v 4 0.1 -4
v 4 0.3 -4
v 0 0.1 0
v 3.4 0.1 0
v 3.6 0.1 0
v 4 0.1 0
v 3.4 0.1 -0.1
v 3.6 0.1 -0.1
v 0 0.1 -0.8
v 2 0.1 -0.8
v 0 0.1 -4
v 2 0.1 -4
v 4 0.1 -4
v 0 0.3 0
v 2.2 0.3 0
v 2.3 0.3 0
v 3.4 0.3 0
v 3.6 0.3 0
v 4 0.3 0
v 2.2 0.3 -0.1
v 2.3 0.3 -0.1
v 3.4 0.3 -0.1
v 3.6 0.3 -0.1
v 3.9 0.3 -0.3
v 4 0.3 -0.3
v 3.9 0.3 -0.4
v 4 0.3 -0.4
v 2.6 0.3 -0.6
v 2.7 0.3 -0.6
v 2.6 0.3 -0.7
v 2.7 0.3 -0.7
v 2.9 0.3 -0.7
v 3.1 0.3 -0.7
v 3.3 0.3 -0.7
v 3.4 0.3 -0.7
v 0 0.3 -0.8
v 0.3 0.3 -0.8
v 0.5 0.3 -0.8
v 2 0.3 -0.8
v 2.8 0.3 -0.8
v 2.9 0.3 -0.8
v 3.3 0.3 -0.8
v 3.4 0.3 -0.8
v 0.3 0.3 -0.9
v 0.5 0.3 -0.9
v 0.6 0.3 -1
v 0.8 0.3 -1
v 2.8 0.3 -1
v 2.9 0.3 -1
v 0.6 0.3 -1.1
v 0.8 0.3 -1.1
v 1 0.3 -1.3
v 1.1 0.3 -1.3
v 2.6 0.3 -1.3
v 2.7 0.3 -1.3
v 1 0.3 -1.4
v 1.1 0.3 -1.4
v 2.9 0.3 -1.4
v 3.1 0.3 -1.4
v 2.6 0.3 -1.5
v 2.7 0.3 -1.5
v 3.5 0.3 -1.5
v 3.6 0.3 -1.5
v 1.7 0.3 -1.6
v 1.8 0.3 -1.6
v 3.5 0.3 -1.6
v 3.6 0.3 -1.6
v 1.7 0.3 -1.7
v 1.8 0.3 -1.7
v 3.6 0.3 -1.7
v 3.7 0.3 -1.7
v 3.6 0.3 -1.8
v 3.7 0.3 -1.8
v 3.7 0.3 -2.2
v 3.8 0.3 -2.2
v 1.7 0.3 -2.3
v 1.8 0.3 -2.3
v 1.7 0.3 -2.4
v 1.8 0.3 -2.4
v 3.1 0.3 -2.4
v 3.3 0.3 -2.4
v 3.7 0.3 -2.4
v 3.8 0.3 -2.4
v 3.1 0.3 -2.5
v 3.3 0.3 -2.5
v 1 0.3 -2.6
v 1.1 0.3 -2.6
v 1 0.3 -2.7
v 1.1 0.3 -2.7
v 2.5 0.3 -2.8
v 2.6 0.3 -2.8
v 0.6 0.3 -2.9
v 0.8 0.3 -2.9
v 2.4 0.3 -2.9
v 2.5 0.3 -2.9
v 2.6 0.3 -2.9
v 3.1 0.3 -2.9
v 3.3 0.3 -2.9
v 3.7 0.3 -2.9
v 3.8 0.3 -2.9
v 0.6 0.3 -3
v 0.8 0.3 -3
v 3.1 0.3 -3
v 3.3 0.3 -3
v 0.3 0.3 -3.1
v 0.5 0.3 -3.1
v 0.3 0.3 -3.2
v 0.4 0.3 -3.2
v 0.8 0.3 -3.2
v 0.9 0.3 -3.2
v 2.4 0.3 -3.2
v 2.6 0.3 -3.2
v 0.4 0.3 -3.3
v 0.5 0.3 -3.3
v 0.6 0.3 -3.3
v 0.8 0.3 -3.3
v 0.6 0.3 -3.4
v 0.9 0.3 -3.4
v 0.3 0.3 -3.8
v 0.5 0.3 -3.8
v 0.3 0.3 -3.9
v 0.4 0.3 -3.9
v 0.5 0.3 -3.9
v 0.6 0.3 -3.9
v 0 0.3 -4
v 0.4 0.3 -4
v 0.6 0.3 -4
v 2 0.3 -4
v 4 0.3 -4

# faces
f 4/2/1 2/2/1 1/2/1
f 5/5/1 3/5/1 2/5/1
f 5/2/1 2/2/1 4/2/1
f 6/5/1 3/5/1 5/5/1
f 7/2/2 8/2/2 9/2/2
f 9/2/2 8/2/2 10/2/2
f 7/2/2 9/2/2 11/2/2
f 9/3/2 10/3/2 12/3/2
f 11/2/2 9/2/2 12/2/2
f 10/2/2 8/2/2 13/2/2
f 12/3/2 10/3/2 13/3/2
f 13/2/2 8/2/2 14/2/2
f 17/2/3 16/2/3 15/2/3
f 18/2/3 16/2/3 17/2/3
f 19/2/3 17/2/3 15/2/3
f 19/4/3 18/4/3 17/4/3
f 20/4/3 18/4/3 19/4/3
f 21/2/3 19/2/3 15/2/3
f 21/2/3 20/2/3 19/2/3
f 22/2/3 20/2/3 21/2/3
f 23/3/3 22/3/3 21/3/3
f 24/3/3 22/3/3 23/3/3
f 25/2/3 24/2/3 23/2/3
f 26/2/3 24/2/3 25/2/3
f 27/5/4 28/5/4 29/5/4
f 29/5/4 28/5/4 30/5/4
f 27/5/4 29/5/4 31/5/4
f 29/6/4 30/6/4 31/6/4
f 31/6/4 30/6/4 32/6/4
f 27/5/4 31/5/4 33/5/4
f 31/5/4 32/5/4 33/5/4
f 33/5/4 32/5/4 34/5/4
f 33/2/4 34/2/4 35/2/4
f 35/2/4 34/2/4 36/2/4
f 41/2/5 38/2/5 37/2/5
f 41/3/5 39/3/5 38/3/5
f 42/2/5 40/2/5 39/2/5
f 42/3/5 39/3/5 41/3/5
f 43/2/5 41/2/5 37/2/5
f 43/2/5 42/2/5 41/2/5
f 44/2/5 42/2/5 43/2/5
f 45/5/5 44/5/5 43/5/5
f 46/2/5 42/2/5 44/2/5
f 46/5/5 44/5/5 45/5/5
f 47/2/5 40/2/5 42/2/5
f 47/2/5 42/2/5 46/2/5
f 48/2/6 49/2/6 54/2/6
f 49/4/6 50/4/6 54/4/6
f 50/2/6 51/2/6 55/2/6
f 54/4/6 50/4/6 55/4/6
f 51/3/6 52/3/6 56/3/6
f 55/2/6 51/2/6 56/2/6
f 52/2/6 53/2/6 57/2/6
f 56/3/6 52/3/6 57/3/6
f 55/2/6 56/2/6 58/2/6
f 57/2/6 53/2/6 58/2/6
f 56/2/6 57/2/6 58/2/6
f 54/2/6 55/2/6 58/2/6
f 58/2/6 53/2/6 59/2/6
f 54/2/6 58/2/6 60/2/6
f 58/3/6 59/3/6 60/3/6
f 60/3/6 59/3/6 61/3/6
f 54/2/6 60/2/6 62/2/6
f 60/2/6 61/2/6 62/2/6
f 62/2/6 61/2/6 63/2/6
f 54/2/6 62/2/6 64/2/6
f 62/3/6 63/3/6 64/3/6
f 63/2/6 61/2/6 65/2/6
f 64/3/6 63/3/6 65/3/6
f 65/2/6 61/2/6 66/2/6
f 66/2/6 61/2/6 67/2/6
f 67/2/6 61/2/6 68/2/6
f 68/2/6 61/2/6 69/2/6
f 48/2/6 54/2/6 70/2/6
f 54/2/6 64/2/6 70/2/6
f 64/2/6 65/2/6 70/2/6
f 65/2/6 66/2/6 70/2/6
f 70/2/6 66/2/6 71/2/6
f 71/2/6 66/2/6 72/2/6
f 72/2/6 66/2/6 73/2/6
f 73/2/6 66/2/6 74/2/6
f 66/1/6 67/1/6 75/1/6
f 74/2/6 66/2/6 75/2/6
f 68/4/6 69/4/6 76/4/6
f 67/2/6 68/2/6 76/2/6
f 69/2/6 61/2/6 77/2/6
f 76/4/6 69/4/6 77/4/6
f 70/5/6 71/5/6 78/5/6
f 71/1/6 72/1/6 78/1/6
f 72/5/6 73/5/6 79/5/6
f 78/1/6 72/1/6 79/1/6
f 78/5/6 79/5/6 80/5/6
f 79/5/6 73/5/6 80/5/6
f 80/5/6 73/5/6 81/5/6
f 74/1/6 75/1/6 82/1/6
f 73/2/6 74/2/6 82/2/6
f 75/1/6 67/1/6 83/1/6
f 82/1/6 75/1/6 83/1/6
f 80/6/6 81/6/6 84/6/6
f 78/5/6 80/5/6 84/5/6
f 81/5/6 73/5/6 85/5/6
f 84/6/6 81/6/6 85/6/6
f 84/5/6 85/5/6 86/5/6
f 85/5/6 73/5/6 86/5/6
f 86/5/6 73/5/6 87/5/6
f 73/2/6 82/2/6 88/2/6
f 82/2/6 83/2/6 88/2/6
f 88/2/6 83/2/6 89/2/6
f 86/6/6 87/6/6 90/6/6
f 84/5/6 86/5/6 90/5/6
f 87/5/6 73/5/6 91/5/6
f 90/6/6 87/6/6 91/6/6
f 83/1/6 67/1/6 92/1/6
f 89/2/6 83/2/6 92/2/6
f 67/2/6 76/2/6 93/2/6
f 92/1/6 67/1/6 93/1/6
f 76/2/6 77/2/6 93/2/6
f 73/2/6 88/2/6 94/2/6
f 88/4/6 89/4/6 94/4/6
f 89/2/6 92/2/6 95/2/6
f 94/4/6 89/4/6 95/4/6
f 92/2/6 93/2/6 95/2/6
f 77/2/6 61/2/6 96/2/6
f 95/2/6 93/2/6 96/2/6
f 93/2/6 77/2/6 96/2/6
f 96/2/6 61/2/6 97/2/6
f 91/5/6 73/5/6 98/5/6
f 90/5/6 91/5/6 98/5/6
f 98/5/6 73/5/6 99/5/6
f 94/2/6 95/2/6 100/2/6
f 96/3/6 97/3/6 100/3/6
f 95/2/6 96/2/6 100/2/6
f 97/2/6 61/2/6 101/2/6
f 100/3/6 97/3/6 101/3/6
f 98/1/6 99/1/6 102/1/6
f 90/5/6 98/5/6 102/5/6
f 99/5/6 73/5/6 103/5/6
f 102/1/6 99/1/6 103/1/6
f 101/2/6 61/2/6 104/2/6
f 100/2/6 101/2/6 104/2/6
f 104/2/6 61/2/6 105/2/6
f 100/2/6 104/2/6 106/2/6
f 104/3/6 105/3/6 106/3/6
f 105/2/6 61/2/6 107/2/6
f 106/3/6 105/3/6 107/3/6
f 106/2/6 107/2/6 108/2/6
f 107/2/6 61/2/6 108/2/6
f 108/2/6 61/2/6 109/2/6
f 90/5/6 102/5/6 110/5/6
f 102/5/6 103/5/6 110/5/6
f 103/5/6 73/5/6 111/5/6
f 110/5/6 103/5/6 111/5/6
f 90/5/6 110/5/6 112/5/6
f 110/1/6 111/1/6 112/1/6
f 111/5/6 73/5/6 113/5/6
f 112/1/6 111/1/6 113/1/6
f 94/2/6 100/2/6 114/2/6
f 100/2/6 106/2/6 114/2/6
f 106/2/6 108/2/6 114/2/6
f 114/2/6 108/2/6 115/2/6
f 108/1/6 109/1/6 116/1/6
f 115/2/6 108/2/6 116/2/6
f 109/2/6 61/2/6 117/2/6
f 116/1/6 109/1/6 117/1/6
f 114/4/6 115/4/6 118/4/6
f 94/2/6 114/2/6 118/2/6
f 115/2/6 116/2/6 119/2/6
f 118/4/6 115/4/6 119/4/6
f 84/5/6 90/5/6 120/5/6
f 90/5/6 112/5/6 120/5/6
f 112/5/6 113/5/6 120/5/6
f 120/5/6 113/5/6 121/5/6
f 84/5/6 120/5/6 122/5/6
f 120/6/6 121/6/6 122/6/6
f 121/5/6 113/5/6 123/5/6
f 122/6/6 121/6/6 123/6/6
f 73/2/6 94/2/6 124/2/6
f 94/2/6 118/2/6 124/2/6
f 124/2/6 118/2/6 125/2/6
f 78/5/6 84/5/6 126/5/6
f 122/5/6 123/5/6 126/5/6
f 84/5/6 122/5/6 126/5/6
f 126/5/6 123/5/6 127/5/6
f 73/2/6 124/2/6 128/2/6
f 124/1/6 125/1/6 129/1/6
f 128/2/6 124/2/6 129/2/6
f 125/2/6 118/2/6 130/2/6
f 129/1/6 125/1/6 130/1/6
f 118/3/6 119/3/6 131/3/6
f 130/2/6 118/2/6 131/2/6
f 119/2/6 116/2/6 132/2/6
f 131/3/6 119/3/6 132/3/6
f 116/3/6 117/3/6 133/3/6
f 132/2/6 116/2/6 133/2/6
f 117/2/6 61/2/6 134/2/6
f 133/3/6 117/3/6 134/3/6
f 78/5/6 126/5/6 135/5/6
f 126/6/6 127/6/6 135/6/6
f 127/5/6 123/5/6 136/5/6
f 135/6/6 127/6/6 136/6/6
f 130/2/6 131/2/6 137/2/6
f 131/4/6 132/4/6 137/4/6
f 132/2/6 133/2/6 138/2/6
f 137/4/6 132/4/6 138/4/6
f 133/2/6 134/2/6 138/2/6
f 70/5/6 78/5/6 139/5/6
f 135/5/6 136/5/6 139/5/6
f 78/5/6 135/5/6 139/5/6
f 139/5/6 136/5/6 140/5/6
f 70/5/6 139/5/6 141/5/6
f 139/1/6 140/1/6 141/1/6
f 141/1/6 140/1/6 142/1/6
f 136/5/6 123/5/6 143/5/6
f 140/5/6 136/5/6 143/5/6
f 143/5/6 123/5/6 144/5/6
f 128/3/6 129/3/6 145/3/6
f 73/2/6 128/2/6 145/2/6
f 129/3/6 130/3/6 145/3/6
f 130/2/6 137/2/6 146/2/6
f 145/3/6 130/3/6 146/3/6
f 137/2/6 138/2/6 146/2/6
f 142/1/6 140/1/6 147/1/6
f 141/5/6 142/5/6 147/5/6
f 140/5/6 143/5/6 148/5/6
f 147/1/6 140/1/6 148/1/6
f 148/5/6 143/5/6 149/5/6
f 143/1/6 144/1/6 150/1/6
f 149/5/6 143/5/6 150/5/6
f 148/5/6 149/5/6 151/5/6
f 147/5/6 148/5/6 151/5/6
f 149/1/6 150/1/6 151/1/6
f 144/5/6 123/5/6 152/5/6
f 151/1/6 150/1/6 152/1/6
f 150/1/6 144/1/6 152/1/6
f 147/5/6 151/5/6 153/5/6
f 141/5/6 147/5/6 153/5/6
f 151/5/6 152/5/6 153/5/6
f 70/5/6 141/5/6 153/5/6
f 153/5/6 152/5/6 154/5/6
f 70/5/6 153/5/6 155/5/6
f 153/6/6 154/6/6 155/6/6
f 155/6/6 154/6/6 156/6/6
f 154/5/6 152/5/6 157/5/6
f 156/6/6 154/6/6 157/6/6
f 157/5/6 152/5/6 158/5/6
f 155/5/6 156/5/6 159/5/6
f 70/5/6 155/5/6 159/5/6
f 157/6/6 158/6/6 160/6/6
f 159/5/6 156/5/6 160/5/6
f 156/6/6 157/6/6 160/6/6
f 158/5/6 152/5/6 161/5/6
f 160/6/6 158/6/6 161/6/6
f 123/5/6 113/5/6 162/5/6
f 161/5/6 152/5/6 162/5/6
f 152/5/6 123/5/6 162/5/6
f 113/5/6 73/5/6 162/5/6
f 145/2/6 146/2/6 162/2/6
f 73/2/6 145/2/6 162/2/6
f 146/2/6 138/2/6 163/2/6
f 162/2/6 146/2/6 163/2/6
f 138/2/6 134/2/6 163/2/6
f 134/2/6 61/2/6 163/2/6
