# MagicaVoxel @ Ephtracy

# group
o 

# material
mtllib shore_joint.mtl
usemtl palette

# normals
vn -1 0 0
vn 1 0 0
vn 0 0 1
vn 0 0 -1
vn 0 -1 0
vn 0 1 0

# texcoords
vt 0.00195313 0.5
vt 0.0214844 0.5
vt 0.341797 0.5
vt 0.373047 0.5
vt 0.751953 0.5
vt 0.966797 0.5

# verts
v -2 0 2
v -2 0 -2
v -2 0.2 2
v -2 0.2 -2
v 2 0 2
v 2 0 -2.38419e-007
v 2 0 -2
v 2 0.1 1.7
v 2 0.1 1.6
v 2 0.2 2
v 2 0.2 1.7
v 2 0.2 1.6
v 2 0.2 -2.38419e-007
v 2 0.2 -2
v -2 0 2
v -2 0.2 2
v -1.6 0.1 2
v -1.6 0.2 2
v -1.4 0.1 2
v -1.4 0.2 2
v 2.38419e-007 0 2
v 2.38419e-007 0.2 2
v 0.2 0.1 2
v 0.2 0.2 2
v 0.3 0.1 2
v 0.3 0.2 2
v 1.4 0 2
v 1.4 0.2 2
v 1.6 0 2
v 1.6 0.2 2
v 2 0 2
v 2 0.2 2
v -2 0 -2
v -2 0.2 -2
v -1.6 0.1 -2
v -1.6 0.2 -2
v -1.4 0.1 -2
v -1.4 0.2 -2
v 2 0 -2
v 2 0.2 -2
v -2 0 2
v 2.38419e-007 0 2
v 1.4 0 2
v 1.6 0 2
v 2 0 2
v 1.4 0 1.9
v 1.6 0 1.9
v 2.38419e-007 0 -2.38419e-007
v 2 0 -2.38419e-007
v 2.38419e-007 0 -0.5
v 1.9 0 -0.5
v 0.2 0 -0.6
v 1.9 0 -0.6
v 2.38419e-007 0 -1.9
v 0.2 0 -1.9
v -2 0 -2
v 2 0 -2
v -2 0.2 2
v -1.6 0.2 2
v -1.4 0.2 2
v 2.38419e-007 0.2 2
v 0.2 0.2 2
v 0.3 0.2 2
v 1.4 0.2 2
v 1.6 0.2 2
v 2 0.2 2
v -1.7 0.2 1.9
v -1.6 0.2 1.9
v -1.5 0.2 1.9
v -1.4 0.2 1.9
v 0.2 0.2 1.9
v 0.3 0.2 1.9
v 1.4 0.2 1.9
v 1.6 0.2 1.9
v -1.7 0.2 1.8
v -1.5 0.2 1.8
v 1.9 0.2 1.7
v 2 0.2 1.7
v 1.9 0.2 1.6
v 2 0.2 1.6
v -1.4 0.2 1.4
v -1.1 0.2 1.4
v 0.6 0.2 1.4
v 0.7 0.2 1.4
v -1.6 0.2 1.3
v -1.5 0.2 1.3
v -1.4 0.2 1.3
v -1.2 0.2 1.3
v 0.6 0.2 1.3
v 0.7 0.2 1.3
v 0.9 0.2 1.3
v 1.1 0.2 1.3
v 1.3 0.2 1.3
v 1.4 0.2 1.3
v -1.7 0.2 1.2
v -1.6 0.2 1.2
v -1.2 0.2 1.2
v -1.1 0.2 1.2
v 0.8 0.2 1.2
v 0.9 0.2 1.2
v 1.3 0.2 1.2
v 1.4 0.2 1.2
v -1.7 0.2 1.1
v -1.5 0.2 1.1
v 2.38419e-007 0.2 1.1
v 0.1 0.2 1.1
v -1.4 0.2 1
v -1.2 0.2 1
v 0.8 0.2 1
v 0.9 0.2 1
v -1.4 0.2 0.9
v -1.2 0.2 0.9
v 0.1 0.2 0.9
v 0.3 0.2 0.9
v -1 0.2 0.7
v -0.9 0.2 0.7
v -1 0.2 0.6
v -0.9 0.2 0.6
v 0.9 0.2 0.6
v 1.1 0.2 0.6
v 0.3 0.2 0.5
v 0.6 0.2 0.5
v 1.5 0.2 0.5
v 1.6 0.2 0.5
v -0.3 0.2 0.4
v -0.2 0.2 0.4
v 1.5 0.2 0.4
v 1.6 0.2 0.4
v -0.3 0.2 0.3
v -0.2 0.2 0.3
v 0.6 0.2 0.3
v 0.9 0.2 0.3
v 1.6 0.2 0.3
v 1.7 0.2 0.3
v 1.6 0.2 0.2
v 1.7 0.2 0.2
v 0.9 0.2 0.0999999
v 1.1 0.2 0.0999999
v 1.1 0.2 -2.38419e-007
v 2 0.2 -2.38419e-007
v -1 0.2 -0.6
v -0.9 0.2 -0.6
v -1 0.2 -0.7
v -0.9 0.2 -0.7
v -1.4 0.2 -0.9
v -1.2 0.2 -0.9
v -1.4 0.2 -1
v -1.2 0.2 -1
v -1.7 0.2 -1.1
v -1.5 0.2 -1.1
v -1.7 0.2 -1.2
v -1.6 0.2 -1.2
v -1.2 0.2 -1.2
v -1.1 0.2 -1.2
v -1.6 0.2 -1.3
v -1.5 0.2 -1.3
v -1.4 0.2 -1.3
v -1.2 0.2 -1.3
v -1.4 0.2 -1.4
v -1.1 0.2 -1.4
v -1.7 0.2 -1.8
v -1.5 0.2 -1.8
v -1.7 0.2 -1.9
v -1.6 0.2 -1.9
v -1.5 0.2 -1.9
v -1.4 0.2 -1.9
v -2 0.2 -2
v -1.6 0.2 -2
v -1.4 0.2 -2
v 2 0.2 -2

# faces
f 3/5/1 2/5/1 1/5/1
f 4/5/1 2/5/1 3/5/1
f 5/2/2 6/2/2 8/2/2
f 8/2/2 6/2/2 9/2/2
f 5/2/2 8/2/2 10/2/2
f 8/3/2 9/3/2 11/3/2
f 10/2/2 8/2/2 11/2/2
f 9/2/2 6/2/2 12/2/2
f 11/3/2 9/3/2 12/3/2
f 6/5/2 7/5/2 13/5/2
f 12/2/2 6/2/2 13/2/2
f 13/5/2 7/5/2 14/5/2
f 17/5/3 16/5/3 15/5/3
f 18/5/3 16/5/3 17/5/3
f 19/5/3 17/5/3 15/5/3
f 19/6/3 18/6/3 17/6/3
f 20/6/3 18/6/3 19/6/3
f 21/5/3 19/5/3 15/5/3
f 21/5/3 20/5/3 19/5/3
f 22/5/3 20/5/3 21/5/3
f 23/2/3 22/2/3 21/2/3
f 24/2/3 22/2/3 23/2/3
f 25/2/3 23/2/3 21/2/3
f 25/4/3 24/4/3 23/4/3
f 26/4/3 24/4/3 25/4/3
f 27/2/3 25/2/3 21/2/3
f 27/2/3 26/2/3 25/2/3
f 28/2/3 26/2/3 27/2/3
f 29/3/3 28/3/3 27/3/3
f 30/3/3 28/3/3 29/3/3
f 31/2/3 30/2/3 29/2/3
f 32/2/3 30/2/3 31/2/3
f 33/5/4 34/5/4 35/5/4
f 35/5/4 34/5/4 36/5/4
f 33/5/4 35/5/4 37/5/4
f 35/6/4 36/6/4 37/6/4
f 37/6/4 36/6/4 38/6/4
f 33/5/4 37/5/4 39/5/4
f 37/5/4 38/5/4 39/5/4
f 39/5/4 38/5/4 40/5/4
f 46/2/5 43/2/5 42/2/5
f 46/3/5 44/3/5 43/3/5
f 47/2/5 45/2/5 44/2/5
f 47/3/5 44/3/5 46/3/5
f 48/5/5 42/5/5 41/5/5
f 48/2/5 46/2/5 42/2/5
f 48/2/5 47/2/5 46/2/5
f 49/2/5 45/2/5 47/2/5
f 49/2/5 47/2/5 48/2/5
f 50/5/5 48/5/5 41/5/5
f 50/5/5 49/5/5 48/5/5
f 51/5/5 49/5/5 50/5/5
f 52/2/5 51/2/5 50/2/5
f 53/5/5 49/5/5 51/5/5
f 53/2/5 51/2/5 52/2/5
f 54/5/5 50/5/5 41/5/5
f 54/2/5 52/2/5 50/2/5
f 55/5/5 53/5/5 52/5/5
f 55/2/5 52/2/5 54/2/5
f 56/5/5 54/5/5 41/5/5
f 56/5/5 55/5/5 54/5/5
f 57/5/5 49/5/5 53/5/5
f 57/5/5 55/5/5 56/5/5
f 57/5/5 53/5/5 55/5/5
f 58/5/6 59/5/6 67/5/6
f 59/6/6 60/6/6 68/6/6
f 67/5/6 59/5/6 68/5/6
f 68/6/6 60/6/6 69/6/6
f 60/5/6 61/5/6 70/5/6
f 69/6/6 60/6/6 70/6/6
f 61/2/6 62/2/6 71/2/6
f 62/4/6 63/4/6 71/4/6
f 63/2/6 64/2/6 72/2/6
f 71/4/6 63/4/6 72/4/6
f 64/3/6 65/3/6 73/3/6
f 72/2/6 64/2/6 73/2/6
f 65/2/6 66/2/6 74/2/6
f 73/3/6 65/3/6 74/3/6
f 58/5/6 67/5/6 75/5/6
f 68/6/6 69/6/6 75/6/6
f 67/6/6 68/6/6 75/6/6
f 69/5/6 70/5/6 76/5/6
f 75/6/6 69/6/6 76/6/6
f 72/2/6 73/2/6 77/2/6
f 74/2/6 66/2/6 77/2/6
f 73/2/6 74/2/6 77/2/6
f 71/2/6 72/2/6 77/2/6
f 77/2/6 66/2/6 78/2/6
f 71/2/6 77/2/6 79/2/6
f 77/3/6 78/3/6 79/3/6
f 79/3/6 78/3/6 80/3/6
f 76/5/6 70/5/6 81/5/6
f 75/5/6 76/5/6 81/5/6
f 70/5/6 61/5/6 81/5/6
f 81/5/6 61/5/6 82/5/6
f 79/2/6 80/2/6 83/2/6
f 71/2/6 79/2/6 83/2/6
f 83/2/6 80/2/6 84/2/6
f 75/5/6 81/5/6 85/5/6
f 85/5/6 81/5/6 86/5/6
f 81/1/6 82/1/6 87/1/6
f 86/5/6 81/5/6 87/5/6
f 87/1/6 82/1/6 88/1/6
f 71/2/6 83/2/6 89/2/6
f 83/3/6 84/3/6 89/3/6
f 84/2/6 80/2/6 90/2/6
f 89/3/6 84/3/6 90/3/6
f 90/2/6 80/2/6 91/2/6
f 91/2/6 80/2/6 92/2/6
f 92/2/6 80/2/6 93/2/6
f 93/2/6 80/2/6 94/2/6
f 58/5/6 75/5/6 95/5/6
f 75/5/6 85/5/6 95/5/6
f 85/1/6 86/1/6 96/1/6
f 95/5/6 85/5/6 96/5/6
f 88/1/6 82/1/6 97/1/6
f 87/5/6 88/5/6 97/5/6
f 86/5/6 87/5/6 97/5/6
f 82/5/6 61/5/6 98/5/6
f 97/1/6 82/1/6 98/1/6
f 89/2/6 90/2/6 99/2/6
f 90/2/6 91/2/6 99/2/6
f 91/1/6 92/1/6 100/1/6
f 99/2/6 91/2/6 100/2/6
f 93/4/6 94/4/6 101/4/6
f 92/2/6 93/2/6 101/2/6
f 94/2/6 80/2/6 102/2/6
f 101/4/6 94/4/6 102/4/6
f 58/5/6 95/5/6 103/5/6
f 95/1/6 96/1/6 103/1/6
f 86/5/6 97/5/6 104/5/6
f 103/1/6 96/1/6 104/1/6
f 96/1/6 86/1/6 104/1/6
f 97/5/6 98/5/6 104/5/6
f 61/2/6 71/2/6 105/2/6
f 104/5/6 98/5/6 105/5/6
f 71/2/6 89/2/6 105/2/6
f 98/5/6 61/5/6 105/5/6
f 89/2/6 99/2/6 105/2/6
f 105/2/6 99/2/6 106/2/6
f 103/5/6 104/5/6 107/5/6
f 104/5/6 105/5/6 107/5/6
f 105/5/6 106/5/6 107/5/6
f 107/5/6 106/5/6 108/5/6
f 106/2/6 99/2/6 109/2/6
f 99/1/6 100/1/6 109/1/6
f 100/1/6 92/1/6 110/1/6
f 109/1/6 100/1/6 110/1/6
f 107/6/6 108/6/6 111/6/6
f 103/5/6 107/5/6 111/5/6
f 108/5/6 106/5/6 112/5/6
f 111/6/6 108/6/6 112/6/6
f 106/2/6 109/2/6 113/2/6
f 112/5/6 106/5/6 113/5/6
f 109/2/6 110/2/6 113/2/6
f 113/2/6 110/2/6 114/2/6
f 111/5/6 112/5/6 115/5/6
f 112/5/6 113/5/6 115/5/6
f 113/5/6 114/5/6 115/5/6
f 115/5/6 114/5/6 116/5/6
f 111/5/6 115/5/6 117/5/6
f 115/6/6 116/6/6 117/6/6
f 116/5/6 114/5/6 118/5/6
f 117/6/6 116/6/6 118/6/6
f 110/1/6 92/1/6 119/1/6
f 114/2/6 110/2/6 119/2/6
f 92/2/6 101/2/6 120/2/6
f 119/1/6 92/1/6 120/1/6
f 101/2/6 102/2/6 120/2/6
f 114/2/6 119/2/6 121/2/6
f 118/5/6 114/5/6 121/5/6
f 119/2/6 120/2/6 121/2/6
f 117/5/6 118/5/6 121/5/6
f 121/2/6 120/2/6 122/2/6
f 102/2/6 80/2/6 123/2/6
f 122/2/6 120/2/6 123/2/6
f 120/2/6 102/2/6 123/2/6
f 123/2/6 80/2/6 124/2/6
f 121/5/6 122/5/6 125/5/6
f 117/5/6 121/5/6 125/5/6
f 125/5/6 122/5/6 126/5/6
f 123/3/6 124/3/6 127/3/6
f 122/2/6 123/2/6 127/2/6
f 124/2/6 80/2/6 128/2/6
f 127/3/6 124/3/6 128/3/6
f 125/1/6 126/1/6 129/1/6
f 117/5/6 125/5/6 129/5/6
f 126/5/6 122/5/6 130/5/6
f 129/1/6 126/1/6 130/1/6
f 122/2/6 127/2/6 131/2/6
f 130/5/6 122/5/6 131/5/6
f 127/2/6 128/2/6 131/2/6
f 131/2/6 128/2/6 132/2/6
f 128/2/6 80/2/6 133/2/6
f 132/2/6 128/2/6 133/2/6
f 133/2/6 80/2/6 134/2/6
f 132/2/6 133/2/6 135/2/6
f 133/3/6 134/3/6 135/3/6
f 134/2/6 80/2/6 136/2/6
f 135/3/6 134/3/6 136/3/6
f 129/5/6 130/5/6 137/5/6
f 131/5/6 132/5/6 137/5/6
f 135/2/6 136/2/6 137/2/6
f 132/2/6 135/2/6 137/2/6
f 130/5/6 131/5/6 137/5/6
f 137/2/6 136/2/6 138/2/6
f 137/5/6 138/5/6 139/5/6
f 138/2/6 136/2/6 139/2/6
f 136/2/6 80/2/6 140/2/6
f 139/2/6 136/2/6 140/2/6
f 137/5/6 139/5/6 141/5/6
f 117/5/6 129/5/6 141/5/6
f 139/5/6 140/5/6 141/5/6
f 129/5/6 137/5/6 141/5/6
f 111/5/6 117/5/6 141/5/6
f 141/5/6 140/5/6 142/5/6
f 111/5/6 141/5/6 143/5/6
f 141/6/6 142/6/6 143/6/6
f 142/5/6 140/5/6 144/5/6
f 143/6/6 142/6/6 144/6/6
f 103/5/6 111/5/6 145/5/6
f 111/5/6 143/5/6 145/5/6
f 143/5/6 144/5/6 145/5/6
f 145/5/6 144/5/6 146/5/6
f 103/5/6 145/5/6 147/5/6
f 145/6/6 146/6/6 147/6/6
f 146/5/6 144/5/6 148/5/6
f 147/6/6 146/6/6 148/6/6
f 58/5/6 103/5/6 149/5/6
f 103/5/6 147/5/6 149/5/6
f 147/5/6 148/5/6 149/5/6
f 149/5/6 148/5/6 150/5/6
f 58/5/6 149/5/6 151/5/6
f 149/1/6 150/1/6 151/1/6
f 151/1/6 150/1/6 152/1/6
f 148/5/6 144/5/6 153/5/6
f 150/5/6 148/5/6 153/5/6
f 153/5/6 144/5/6 154/5/6
f 152/1/6 150/1/6 155/1/6
f 151/5/6 152/5/6 155/5/6
f 150/5/6 153/5/6 156/5/6
f 155/1/6 150/1/6 156/1/6
f 156/5/6 153/5/6 157/5/6
f 153/1/6 154/1/6 158/1/6
f 157/5/6 153/5/6 158/5/6
f 156/5/6 157/5/6 159/5/6
f 155/5/6 156/5/6 159/5/6
f 157/1/6 158/1/6 159/1/6
f 154/5/6 144/5/6 160/5/6
f 159/1/6 158/1/6 160/1/6
f 158/1/6 154/1/6 160/1/6
f 155/5/6 159/5/6 161/5/6
f 151/5/6 155/5/6 161/5/6
f 159/5/6 160/5/6 161/5/6
f 58/5/6 151/5/6 161/5/6
f 161/5/6 160/5/6 162/5/6
f 58/5/6 161/5/6 163/5/6
f 161/6/6 162/6/6 163/6/6
f 163/6/6 162/6/6 164/6/6
f 162/5/6 160/5/6 165/5/6
f 164/6/6 162/6/6 165/6/6
f 165/5/6 160/5/6 166/5/6
f 163/5/6 164/5/6 167/5/6
f 58/5/6 163/5/6 167/5/6
f 165/6/6 166/6/6 168/6/6
f 167/5/6 164/5/6 168/5/6
f 164/6/6 165/6/6 168/6/6
f 166/5/6 160/5/6 169/5/6
f 168/6/6 166/6/6 169/6/6
f 160/5/6 144/5/6 170/5/6
f 169/5/6 160/5/6 170/5/6
f 144/5/6 140/5/6 170/5/6
