# MagicaVoxel @ Ephtracy

# group
o 

# material
mtllib tower-bot.mtl
usemtl palette

# normals
vn -1 0 0
vn 1 0 0
vn 0 0 1
vn 0 0 -1
vn 0 -1 0
vn 0 1 0

# texcoords
vt 0.373047 0.5
vt 0.978516 0.5

# verts
v -0.9 0 0.1
v -0.9 0 -0.2
v -0.9 0.1 0.1
v -0.9 0.1 -0.2
v -0.8 0.1 0.1
v -0.8 0.1 -0.2
v -0.8 0.2 0.1
v -0.8 0.2 -0.2
v -0.3 0 0.4
v -0.3 0 0.1
v -0.3 0 -0.2
v -0.3 0 -0.5
v -0.3 0.1 0.4
v -0.3 0.1 0.1
v -0.3 0.1 -0.2
v -0.3 0.1 -0.5
v -0.2 0.1 0.2
v -0.2 0.1 -0.3
v -0.2 0.2 0.2
v -0.2 0.2 -0.3
v -0.2 0.5 0.2
v -0.2 0.5 -0.3
v -0.2 0.6 0.2
v -0.2 0.6 -0.3
v -0.1 0.2 0.1
v -0.1 0.2 -0.2
v -0.1 0.5 0.1
v -0.1 0.5 -0.2
v 0.6 0.1 0.1
v 0.6 0.1 -0.2
v 0.6 0.2 0.1
v 0.6 0.2 -0.2
v -0.6 0.1 0.1
v -0.6 0.1 -0.2
v -0.6 0.2 0.1
v -0.6 0.2 -0.2
v 0.1 0.2 0.1
v 0.1 0.2 -0.2
v 0.1 0.5 0.1
v 0.1 0.5 -0.2
v 0.2 0.1 0.2
v 0.2 0.1 -0.3
v 0.2 0.2 0.2
v 0.2 0.2 -0.3
v 0.2 0.5 0.2
v 0.2 0.5 -0.3
v 0.2 0.6 0.2
v 0.2 0.6 -0.3
v 0.3 0 0.4
v 0.3 0 0.1
v 0.3 0 -0.2
v 0.3 0 -0.5
v 0.3 0.1 0.4
v 0.3 0.1 0.1
v 0.3 0.1 -0.2
v 0.3 0.1 -0.5
v 0.8 0.1 0.1
v 0.8 0.1 -0.2
v 0.8 0.2 0.1
v 0.8 0.2 -0.2
v 0.9 0 0.1
v 0.9 0 -0.2
v 0.9 0.1 0.1
v 0.9 0.1 -0.2
v -0.3 0 0.4
v -0.3 0.1 0.4
v 0.3 0 0.4
v 0.3 0.1 0.4
v -0.2 0.1 0.2
v -0.2 0.2 0.2
v -0.2 0.5 0.2
v -0.2 0.6 0.2
v 0.2 0.1 0.2
v 0.2 0.2 0.2
v 0.2 0.5 0.2
v 0.2 0.6 0.2
v -0.9 0 0.1
v -0.9 0.1 0.1
v -0.8 0.1 0.1
v -0.8 0.2 0.1
v -0.6 0.1 0.1
v -0.6 0.2 0.1
v -0.3 0 0.1
v -0.3 0.1 0.1
v -0.1 0.2 0.1
v -0.1 0.5 0.1
v 0.1 0.2 0.1
v 0.1 0.5 0.1
v 0.3 0 0.1
v 0.3 0.1 0.1
v 0.6 0.1 0.1
v 0.6 0.2 0.1
v 0.8 0.1 0.1
v 0.8 0.2 0.1
v 0.9 0 0.1
v 0.9 0.1 0.1
v -0.9 0 -0.2
v -0.9 0.1 -0.2
v -0.8 0.1 -0.2
v -0.8 0.2 -0.2
v -0.6 0.1 -0.2
v -0.6 0.2 -0.2
v -0.3 0 -0.2
v -0.3 0.1 -0.2
v -0.1 0.2 -0.2
v -0.1 0.5 -0.2
v 0.1 0.2 -0.2
v 0.1 0.5 -0.2
v 0.3 0 -0.2
v 0.3 0.1 -0.2
v 0.6 0.1 -0.2
v 0.6 0.2 -0.2
v 0.8 0.1 -0.2
v 0.8 0.2 -0.2
v 0.9 0 -0.2
v 0.9 0.1 -0.2
v -0.2 0.1 -0.3
v -0.2 0.2 -0.3
v -0.2 0.5 -0.3
v -0.2 0.6 -0.3
v 0.2 0.1 -0.3
v 0.2 0.2 -0.3
v 0.2 0.5 -0.3
v 0.2 0.6 -0.3
v -0.3 0 -0.5
v -0.3 0.1 -0.5
v 0.3 0 -0.5
v 0.3 0.1 -0.5
v -0.3 0 0.4
v 0.3 0 0.4
v -0.9 0 0.1
v -0.3 0 0.1
v 0.3 0 0.1
v 0.9 0 0.1
v -0.9 0 -0.2
v -0.3 0 -0.2
v 0.3 0 -0.2
v 0.9 0 -0.2
v -0.3 0 -0.5
v 0.3 0 -0.5
v -0.2 0.5 0.2
v 0.2 0.5 0.2
v -0.1 0.5 0.1
v 0.1 0.5 0.1
v -0.1 0.5 -0.2
v 0.1 0.5 -0.2
v -0.2 0.5 -0.3
v 0.2 0.5 -0.3
v -0.3 0.1 0.4
v 0.3 0.1 0.4
v -0.2 0.1 0.2
v 0.2 0.1 0.2
v -0.9 0.1 0.1
v -0.8 0.1 0.1
v -0.6 0.1 0.1
v -0.3 0.1 0.1
v 0.3 0.1 0.1
v 0.6 0.1 0.1
v 0.8 0.1 0.1
v 0.9 0.1 0.1
v -0.9 0.1 -0.2
v -0.8 0.1 -0.2
v -0.6 0.1 -0.2
v -0.3 0.1 -0.2
v 0.3 0.1 -0.2
v 0.6 0.1 -0.2
v 0.8 0.1 -0.2
v 0.9 0.1 -0.2
v -0.2 0.1 -0.3
v 0.2 0.1 -0.3
v -0.3 0.1 -0.5
v 0.3 0.1 -0.5
v -0.2 0.2 0.2
v 0.2 0.2 0.2
v -0.8 0.2 0.1
v -0.6 0.2 0.1
v -0.1 0.2 0.1
v 0.1 0.2 0.1
v 0.6 0.2 0.1
v 0.8 0.2 0.1
v -0.8 0.2 -0.2
v -0.6 0.2 -0.2
v -0.1 0.2 -0.2
v 0.1 0.2 -0.2
v 0.6 0.2 -0.2
v 0.8 0.2 -0.2
v -0.2 0.2 -0.3
v 0.2 0.2 -0.3
v -0.2 0.6 0.2
v 0.2 0.6 0.2
v -0.1 0.6 0.1
v 0.1 0.6 0.1
v -0.1 0.6 -0.2
v 0.1 0.6 -0.2
v -0.2 0.6 -0.3
v 0.2 0.6 -0.3

# faces
f 3/1/1 2/1/1 1/1/1
f 4/1/1 2/1/1 3/1/1
f 7/2/1 6/2/1 5/2/1
f 8/2/1 6/2/1 7/2/1
f 13/1/1 10/1/1 9/1/1
f 14/1/1 10/1/1 13/1/1
f 15/1/1 12/1/1 11/1/1
f 16/1/1 12/1/1 15/1/1
f 19/1/1 18/1/1 17/1/1
f 20/1/1 18/1/1 19/1/1
f 23/2/1 22/2/1 21/2/1
f 24/2/1 22/2/1 23/2/1
f 27/1/1 26/1/1 25/1/1
f 28/1/1 26/1/1 27/1/1
f 31/2/1 30/2/1 29/2/1
f 32/2/1 30/2/1 31/2/1
f 33/2/2 34/2/2 35/2/2
f 35/2/2 34/2/2 36/2/2
f 37/1/2 38/1/2 39/1/2
f 39/1/2 38/1/2 40/1/2
f 41/1/2 42/1/2 43/1/2
f 43/1/2 42/1/2 44/1/2
f 45/2/2 46/2/2 47/2/2
f 47/2/2 46/2/2 48/2/2
f 49/1/2 50/1/2 53/1/2
f 53/1/2 50/1/2 54/1/2
f 51/1/2 52/1/2 55/1/2
f 55/1/2 52/1/2 56/1/2
f 57/2/2 58/2/2 59/2/2
f 59/2/2 58/2/2 60/2/2
f 61/1/2 62/1/2 63/1/2
f 63/1/2 62/1/2 64/1/2
f 67/1/3 66/1/3 65/1/3
f 68/1/3 66/1/3 67/1/3
f 73/1/3 70/1/3 69/1/3
f 74/1/3 70/1/3 73/1/3
f 75/2/3 72/2/3 71/2/3
f 76/2/3 72/2/3 75/2/3
f 79/1/3 78/1/3 77/1/3
f 81/1/3 79/1/3 77/1/3
f 81/2/3 80/2/3 79/2/3
f 82/2/3 80/2/3 81/2/3
f 83/1/3 81/1/3 77/1/3
f 84/1/3 81/1/3 83/1/3
f 87/1/3 86/1/3 85/1/3
f 88/1/3 86/1/3 87/1/3
f 91/1/3 90/1/3 89/1/3
f 93/1/3 91/1/3 89/1/3
f 93/2/3 92/2/3 91/2/3
f 94/2/3 92/2/3 93/2/3
f 95/1/3 93/1/3 89/1/3
f 96/1/3 93/1/3 95/1/3
f 97/1/4 98/1/4 99/1/4
f 97/1/4 99/1/4 101/1/4
f 99/2/4 100/2/4 101/2/4
f 101/2/4 100/2/4 102/2/4
f 97/1/4 101/1/4 103/1/4
f 103/1/4 101/1/4 104/1/4
f 105/1/4 106/1/4 107/1/4
f 107/1/4 106/1/4 108/1/4
f 109/1/4 110/1/4 111/1/4
f 109/1/4 111/1/4 113/1/4
f 111/2/4 112/2/4 113/2/4
f 113/2/4 112/2/4 114/2/4
f 109/1/4 113/1/4 115/1/4
f 115/1/4 113/1/4 116/1/4
f 117/1/4 118/1/4 121/1/4
f 121/1/4 118/1/4 122/1/4
f 119/2/4 120/2/4 123/2/4
f 123/2/4 120/2/4 124/2/4
f 125/1/4 126/1/4 127/1/4
f 127/1/4 126/1/4 128/1/4
f 132/1/5 130/1/5 129/1/5
f 133/1/5 130/1/5 132/1/5
f 135/1/5 132/1/5 131/1/5
f 135/1/5 134/1/5 133/1/5
f 135/1/5 133/1/5 132/1/5
f 136/1/5 134/1/5 135/1/5
f 137/1/5 134/1/5 136/1/5
f 138/1/5 134/1/5 137/1/5
f 139/1/5 137/1/5 136/1/5
f 140/1/5 137/1/5 139/1/5
f 143/2/5 142/2/5 141/2/5
f 144/2/5 142/2/5 143/2/5
f 145/2/5 143/2/5 141/2/5
f 146/2/5 142/2/5 144/2/5
f 147/2/5 145/2/5 141/2/5
f 147/2/5 146/2/5 145/2/5
f 148/2/5 142/2/5 146/2/5
f 148/2/5 146/2/5 147/2/5
f 149/1/6 150/1/6 151/1/6
f 151/1/6 150/1/6 152/1/6
f 149/1/6 151/1/6 156/1/6
f 152/1/6 150/1/6 157/1/6
f 153/1/6 154/1/6 161/1/6
f 161/1/6 154/1/6 162/1/6
f 155/1/6 156/1/6 163/1/6
f 156/1/6 151/1/6 164/1/6
f 163/1/6 156/1/6 164/1/6
f 152/1/6 157/1/6 165/1/6
f 157/1/6 158/1/6 165/1/6
f 165/1/6 158/1/6 166/1/6
f 159/1/6 160/1/6 167/1/6
f 167/1/6 160/1/6 168/1/6
f 164/1/6 151/1/6 169/1/6
f 152/1/6 165/1/6 170/1/6
f 164/1/6 169/1/6 171/1/6
f 169/1/6 170/1/6 171/1/6
f 170/1/6 165/1/6 172/1/6
f 171/1/6 170/1/6 172/1/6
f 173/1/6 174/1/6 177/1/6
f 177/1/6 174/1/6 178/1/6
f 175/2/6 176/2/6 181/2/6
f 181/2/6 176/2/6 182/2/6
f 173/1/6 177/1/6 183/1/6
f 178/1/6 174/1/6 184/1/6
f 179/2/6 180/2/6 185/2/6
f 185/2/6 180/2/6 186/2/6
f 183/1/6 184/1/6 187/1/6
f 173/1/6 183/1/6 187/1/6
f 184/1/6 174/1/6 188/1/6
f 187/1/6 184/1/6 188/1/6
f 189/2/6 190/2/6 191/2/6
f 191/2/6 190/2/6 192/2/6
f 189/2/6 191/2/6 193/2/6
f 191/1/6 192/1/6 193/1/6
f 192/2/6 190/2/6 194/2/6
f 193/1/6 192/1/6 194/1/6
f 189/2/6 193/2/6 195/2/6
f 193/2/6 194/2/6 195/2/6
f 194/2/6 190/2/6 196/2/6
f 195/2/6 194/2/6 196/2/6
