# MagicaVoxel @ Ephtracy

# group
o 

# material
mtllib water.mtl
usemtl palette

# normals
vn -1 0 0
vn 1 0 0
vn 0 0 1
vn 0 0 -1
vn 0 -1 0
vn 0 1 0

# texcoords
vt 0.00195313 0.5
vt 0.751953 0.5
vt 0.966797 0.5

# verts
v -2 0 2
v -2 0 -2
v -2 0.2 2
v -2 0.2 -2
v 2 0 2
v 2 0 -2
v 2 0.1 1.5
v 2 0.1 1.3
v 2 0.1 0.4
v 2 0.1 0.2
v 2 0.1 -0.2
v 2 0.1 -0.4
v 2 0.1 -1.3
v 2 0.1 -1.5
v 2 0.2 2
v 2 0.2 1.5
v 2 0.2 1.3
v 2 0.2 0.4
v 2 0.2 0.2
v 2 0.2 -0.2
v 2 0.2 -0.4
v 2 0.2 -1.3
v 2 0.2 -1.5
v 2 0.2 -2
v -2 0 2
v -2 0.2 2
v -1.6 0.1 2
v -1.6 0.2 2
v -1.4 0.1 2
v -1.4 0.2 2
v 1.3 0 2
v 1.3 0.2 2
v 1.4 0 2
v 1.4 0.2 2
v 2 0 2
v 2 0.2 2
v -2 0 -2
v -2 0.2 -2
v -1.6 0.1 -2
v -1.6 0.2 -2
v -1.4 0.1 -2
v -1.4 0.2 -2
v 1.3 0 -2
v 1.3 0.2 -2
v 1.4 0 -2
v 1.4 0.2 -2
v 2 0 -2
v 2 0.2 -2
v -2 0 2
v 1.3 0 2
v 1.4 0 2
v 2 0 2
v 1.3 0 1.9
v 1.4 0 1.9
v 1.3 0 -1.9
v 1.4 0 -1.9
v -2 0 -2
v 1.3 0 -2
v 1.4 0 -2
v 2 0 -2
v -2 0.2 2
v -1.6 0.2 2
v -1.4 0.2 2
v 1.3 0.2 2
v 1.4 0.2 2
v 2 0.2 2
v -1.7 0.2 1.9
v -1.6 0.2 1.9
v -1.5 0.2 1.9
v -1.4 0.2 1.9
v 1.3 0.2 1.9
v 1.4 0.2 1.9
v -1.7 0.2 1.8
v -1.5 0.2 1.8
v 1.1 0.2 1.7
v 1.2 0.2 1.7
v 1.1 0.2 1.6
v 1.2 0.2 1.6
v 1.9 0.2 1.5
v 2 0.2 1.5
v -1.4 0.2 1.4
v -1.1 0.2 1.4
v -1.6 0.2 1.3
v -1.5 0.2 1.3
v -1.4 0.2 1.3
v -1.2 0.2 1.3
v 1.9 0.2 1.3
v 2 0.2 1.3
v -1.7 0.2 1.2
v -1.6 0.2 1.2
v -1.2 0.2 1.2
v -1.1 0.2 1.2
v -1.7 0.2 1.1
v -1.5 0.2 1.1
v -1.4 0.2 1
v -1.2 0.2 1
v -1.4 0.2 0.9
v -1.2 0.2 0.9
v -1 0.2 0.7
v -0.9 0.2 0.7
v -1 0.2 0.6
v -0.9 0.2 0.6
v 1 0.2 0.6
v 1.2 0.2 0.6
v 1 0.2 0.5
v 1.2 0.2 0.5
v 1.3 0.2 0.5
v -0.3 0.2 0.4
v -0.2 0.2 0.4
v 1.2 0.2 0.4
v 1.3 0.2 0.4
v 1.9 0.2 0.4
v 2 0.2 0.4
v -0.3 0.2 0.3
v -0.2 0.2 0.3
v 0.7 0.2 0.3
v 0.8 0.2 0.3
v 0.6 0.2 0.2
v 0.7 0.2 0.2
v 1.9 0.2 0.2
v 2 0.2 0.2
v 0.6 0.2 0.0999999
v 0.8 0.2 0.0999999
v 0.6 0.2 -0.1
v 0.8 0.2 -0.1
v 0.6 0.2 -0.2
v 0.7 0.2 -0.2
v 1.9 0.2 -0.2
v 2 0.2 -0.2
v -0.3 0.2 -0.3
v -0.2 0.2 -0.3
v 0.7 0.2 -0.3
v 0.8 0.2 -0.3
v -0.3 0.2 -0.4
v -0.2 0.2 -0.4
v 1.2 0.2 -0.4
v 1.3 0.2 -0.4
v 1.9 0.2 -0.4
v 2 0.2 -0.4
v 1 0.2 -0.5
v 1.2 0.2 -0.5
v 1.3 0.2 -0.5
v -1 0.2 -0.6
v -0.9 0.2 -0.6
v 1 0.2 -0.6
v 1.2 0.2 -0.6
v -1 0.2 -0.7
v -0.9 0.2 -0.7
v -1.4 0.2 -0.9
v -1.2 0.2 -0.9
v -1.4 0.2 -1
v -1.2 0.2 -1
v -1.7 0.2 -1.1
v -1.5 0.2 -1.1
v -1.7 0.2 -1.2
v -1.6 0.2 -1.2
v -1.2 0.2 -1.2
v -1.1 0.2 -1.2
v -1.6 0.2 -1.3
v -1.5 0.2 -1.3
v -1.4 0.2 -1.3
v -1.2 0.2 -1.3
v 1.9 0.2 -1.3
v 2 0.2 -1.3
v -1.4 0.2 -1.4
v -1.1 0.2 -1.4
v 1.9 0.2 -1.5
v 2 0.2 -1.5
v 1.1 0.2 -1.6
v 1.2 0.2 -1.6
v 1.1 0.2 -1.7
v 1.2 0.2 -1.7
v -1.7 0.2 -1.8
v -1.5 0.2 -1.8
v -1.7 0.2 -1.9
v -1.6 0.2 -1.9
v -1.5 0.2 -1.9
v -1.4 0.2 -1.9
v 1.3 0.2 -1.9
v 1.4 0.2 -1.9
v -2 0.2 -2
v -1.6 0.2 -2
v -1.4 0.2 -2
v 1.3 0.2 -2
v 1.4 0.2 -2
v 2 0.2 -2

# faces
f 3/2/1 2/2/1 1/2/1
f 4/2/1 2/2/1 3/2/1
f 5/2/2 6/2/2 7/2/2
f 7/2/2 6/2/2 8/2/2
f 8/2/2 6/2/2 9/2/2
f 9/2/2 6/2/2 10/2/2
f 10/2/2 6/2/2 11/2/2
f 11/2/2 6/2/2 12/2/2
f 12/2/2 6/2/2 13/2/2
f 13/2/2 6/2/2 14/2/2
f 5/2/2 7/2/2 15/2/2
f 7/3/2 8/3/2 16/3/2
f 15/2/2 7/2/2 16/2/2
f 8/2/2 9/2/2 17/2/2
f 16/3/2 8/3/2 17/3/2
f 9/3/2 10/3/2 18/3/2
f 17/2/2 9/2/2 18/2/2
f 10/2/2 11/2/2 19/2/2
f 18/3/2 10/3/2 19/3/2
f 11/3/2 12/3/2 20/3/2
f 19/2/2 11/2/2 20/2/2
f 12/2/2 13/2/2 21/2/2
f 20/3/2 12/3/2 21/3/2
f 13/3/2 14/3/2 22/3/2
f 21/2/2 13/2/2 22/2/2
f 14/2/2 6/2/2 23/2/2
f 22/3/2 14/3/2 23/3/2
f 23/2/2 6/2/2 24/2/2
f 27/2/3 26/2/3 25/2/3
f 28/2/3 26/2/3 27/2/3
f 29/2/3 27/2/3 25/2/3
f 29/3/3 28/3/3 27/3/3
f 30/3/3 28/3/3 29/3/3
f 31/2/3 29/2/3 25/2/3
f 31/2/3 30/2/3 29/2/3
f 32/2/3 30/2/3 31/2/3
f 33/3/3 32/3/3 31/3/3
f 34/3/3 32/3/3 33/3/3
f 35/2/3 34/2/3 33/2/3
f 36/2/3 34/2/3 35/2/3
f 37/2/4 38/2/4 39/2/4
f 39/2/4 38/2/4 40/2/4
f 37/2/4 39/2/4 41/2/4
f 39/3/4 40/3/4 41/3/4
f 41/3/4 40/3/4 42/3/4
f 37/2/4 41/2/4 43/2/4
f 41/2/4 42/2/4 43/2/4
f 43/2/4 42/2/4 44/2/4
f 43/3/4 44/3/4 45/3/4
f 45/3/4 44/3/4 46/3/4
f 45/2/4 46/2/4 47/2/4
f 47/2/4 46/2/4 48/2/4
f 53/2/5 50/2/5 49/2/5
f 53/3/5 51/3/5 50/3/5
f 54/2/5 52/2/5 51/2/5
f 54/3/5 51/3/5 53/3/5
f 55/2/5 53/2/5 49/2/5
f 55/2/5 54/2/5 53/2/5
f 56/2/5 52/2/5 54/2/5
f 56/2/5 54/2/5 55/2/5
f 57/2/5 55/2/5 49/2/5
f 58/3/5 56/3/5 55/3/5
f 58/2/5 55/2/5 57/2/5
f 59/2/5 52/2/5 56/2/5
f 59/3/5 56/3/5 58/3/5
f 60/2/5 52/2/5 59/2/5
f 61/2/6 62/2/6 67/2/6
f 62/3/6 63/3/6 68/3/6
f 67/2/6 62/2/6 68/2/6
f 68/3/6 63/3/6 69/3/6
f 63/2/6 64/2/6 70/2/6
f 69/3/6 63/3/6 70/3/6
f 64/3/6 65/3/6 71/3/6
f 70/2/6 64/2/6 71/2/6
f 65/2/6 66/2/6 72/2/6
f 71/3/6 65/3/6 72/3/6
f 61/2/6 67/2/6 73/2/6
f 68/3/6 69/3/6 73/3/6
f 67/3/6 68/3/6 73/3/6
f 70/2/6 71/2/6 74/2/6
f 73/3/6 69/3/6 74/3/6
f 71/2/6 72/2/6 74/2/6
f 69/2/6 70/2/6 74/2/6
f 73/2/6 74/2/6 75/2/6
f 74/2/6 72/2/6 75/2/6
f 75/2/6 72/2/6 76/2/6
f 73/2/6 75/2/6 77/2/6
f 75/1/6 76/1/6 77/1/6
f 76/2/6 72/2/6 78/2/6
f 77/1/6 76/1/6 78/1/6
f 72/2/6 66/2/6 79/2/6
f 78/2/6 72/2/6 79/2/6
f 77/2/6 78/2/6 79/2/6
f 79/2/6 66/2/6 80/2/6
f 73/2/6 77/2/6 81/2/6
f 77/2/6 79/2/6 81/2/6
f 81/2/6 79/2/6 82/2/6
f 73/2/6 81/2/6 83/2/6
f 83/2/6 81/2/6 84/2/6
f 81/1/6 82/1/6 85/1/6
f 84/2/6 81/2/6 85/2/6
f 85/1/6 82/1/6 86/1/6
f 79/3/6 80/3/6 87/3/6
f 82/2/6 79/2/6 87/2/6
f 87/3/6 80/3/6 88/3/6
f 61/2/6 73/2/6 89/2/6
f 73/2/6 83/2/6 89/2/6
f 83/1/6 84/1/6 90/1/6
f 89/2/6 83/2/6 90/2/6
f 86/1/6 82/1/6 91/1/6
f 85/2/6 86/2/6 91/2/6
f 84/2/6 85/2/6 91/2/6
f 87/2/6 88/2/6 92/2/6
f 91/1/6 82/1/6 92/1/6
f 82/2/6 87/2/6 92/2/6
f 89/1/6 90/1/6 93/1/6
f 61/2/6 89/2/6 93/2/6
f 90/1/6 84/1/6 94/1/6
f 93/1/6 90/1/6 94/1/6
f 91/2/6 92/2/6 94/2/6
f 84/2/6 91/2/6 94/2/6
f 93/2/6 94/2/6 95/2/6
f 94/2/6 92/2/6 95/2/6
f 95/2/6 92/2/6 96/2/6
f 93/2/6 95/2/6 97/2/6
f 95/3/6 96/3/6 97/3/6
f 96/2/6 92/2/6 98/2/6
f 97/3/6 96/3/6 98/3/6
f 92/2/6 88/2/6 99/2/6
f 98/2/6 92/2/6 99/2/6
f 97/2/6 98/2/6 99/2/6
f 99/2/6 88/2/6 100/2/6
f 97/2/6 99/2/6 101/2/6
f 99/3/6 100/3/6 101/3/6
f 100/2/6 88/2/6 102/2/6
f 101/3/6 100/3/6 102/3/6
f 102/2/6 88/2/6 103/2/6
f 103/2/6 88/2/6 104/2/6
f 101/2/6 102/2/6 105/2/6
f 102/2/6 103/2/6 105/2/6
f 103/3/6 104/3/6 105/3/6
f 104/2/6 88/2/6 106/2/6
f 105/3/6 104/3/6 106/3/6
f 106/2/6 88/2/6 107/2/6
f 101/2/6 105/2/6 108/2/6
f 105/2/6 106/2/6 108/2/6
f 108/2/6 106/2/6 109/2/6
f 106/3/6 107/3/6 110/3/6
f 109/2/6 106/2/6 110/2/6
f 107/2/6 88/2/6 111/2/6
f 110/3/6 107/3/6 111/3/6
f 111/2/6 88/2/6 112/2/6
f 112/2/6 88/2/6 113/2/6
f 108/1/6 109/1/6 114/1/6
f 101/2/6 108/2/6 114/2/6
f 109/2/6 110/2/6 115/2/6
f 114/1/6 109/1/6 115/1/6
f 110/2/6 111/2/6 115/2/6
f 111/2/6 112/2/6 115/2/6
f 115/2/6 112/2/6 116/2/6
f 116/2/6 112/2/6 117/2/6
f 114/2/6 115/2/6 118/2/6
f 115/2/6 116/2/6 118/2/6
f 116/1/6 117/1/6 119/1/6
f 118/2/6 116/2/6 119/2/6
f 112/3/6 113/3/6 120/3/6
f 117/2/6 112/2/6 120/2/6
f 120/3/6 113/3/6 121/3/6
f 118/1/6 119/1/6 122/1/6
f 114/2/6 118/2/6 122/2/6
f 119/1/6 117/1/6 123/1/6
f 122/1/6 119/1/6 123/1/6
f 120/2/6 121/2/6 123/2/6
f 117/2/6 120/2/6 123/2/6
f 114/2/6 122/2/6 124/2/6
f 122/2/6 123/2/6 124/2/6
f 123/2/6 121/2/6 125/2/6
f 124/2/6 123/2/6 125/2/6
f 114/2/6 124/2/6 126/2/6
f 124/1/6 125/1/6 126/1/6
f 126/1/6 125/1/6 127/1/6
f 125/2/6 121/2/6 128/2/6
f 128/2/6 121/2/6 129/2/6
f 101/2/6 114/2/6 130/2/6
f 114/2/6 126/2/6 130/2/6
f 126/2/6 127/2/6 130/2/6
f 130/2/6 127/2/6 131/2/6
f 127/1/6 125/1/6 132/1/6
f 131/2/6 127/2/6 132/2/6
f 125/2/6 128/2/6 133/2/6
f 132/1/6 125/1/6 133/1/6
f 130/1/6 131/1/6 134/1/6
f 101/2/6 130/2/6 134/2/6
f 131/2/6 132/2/6 135/2/6
f 134/1/6 131/1/6 135/1/6
f 132/2/6 133/2/6 135/2/6
f 133/2/6 128/2/6 136/2/6
f 135/2/6 133/2/6 136/2/6
f 136/2/6 128/2/6 137/2/6
f 128/3/6 129/3/6 138/3/6
f 137/2/6 128/2/6 138/2/6
f 138/3/6 129/3/6 139/3/6
f 134/2/6 135/2/6 140/2/6
f 135/2/6 136/2/6 140/2/6
f 136/3/6 137/3/6 141/3/6
f 140/2/6 136/2/6 141/2/6
f 138/2/6 139/2/6 142/2/6
f 141/3/6 137/3/6 142/3/6
f 137/2/6 138/2/6 142/2/6
f 97/2/6 101/2/6 143/2/6
f 134/2/6 140/2/6 143/2/6
f 101/2/6 134/2/6 143/2/6
f 143/2/6 140/2/6 144/2/6
f 140/3/6 141/3/6 145/3/6
f 144/2/6 140/2/6 145/2/6
f 141/2/6 142/2/6 146/2/6
f 145/3/6 141/3/6 146/3/6
f 143/3/6 144/3/6 147/3/6
f 97/2/6 143/2/6 147/2/6
f 144/2/6 145/2/6 148/2/6
f 147/3/6 144/3/6 148/3/6
f 145/2/6 146/2/6 148/2/6
f 93/2/6 97/2/6 149/2/6
f 97/2/6 147/2/6 149/2/6
f 147/2/6 148/2/6 149/2/6
f 149/2/6 148/2/6 150/2/6
f 93/2/6 149/2/6 151/2/6
f 149/3/6 150/3/6 151/3/6
f 150/2/6 148/2/6 152/2/6
f 151/3/6 150/3/6 152/3/6
f 61/2/6 93/2/6 153/2/6
f 93/2/6 151/2/6 153/2/6
f 151/2/6 152/2/6 153/2/6
f 153/2/6 152/2/6 154/2/6
f 61/2/6 153/2/6 155/2/6
f 153/1/6 154/1/6 155/1/6
f 155/1/6 154/1/6 156/1/6
f 152/2/6 148/2/6 157/2/6
f 154/2/6 152/2/6 157/2/6
f 157/2/6 148/2/6 158/2/6
f 156/1/6 154/1/6 159/1/6
f 155/2/6 156/2/6 159/2/6
f 154/2/6 157/2/6 160/2/6
f 159/1/6 154/1/6 160/1/6
f 160/2/6 157/2/6 161/2/6
f 157/1/6 158/1/6 162/1/6
f 161/2/6 157/2/6 162/2/6
f 158/2/6 148/2/6 163/2/6
f 148/2/6 146/2/6 163/2/6
f 142/2/6 139/2/6 163/2/6
f 146/2/6 142/2/6 163/2/6
f 163/2/6 139/2/6 164/2/6
f 161/1/6 162/1/6 165/1/6
f 159/2/6 160/2/6 165/2/6
f 160/2/6 161/2/6 165/2/6
f 162/1/6 158/1/6 166/1/6
f 165/1/6 162/1/6 166/1/6
f 158/2/6 163/2/6 166/2/6
f 163/3/6 164/3/6 167/3/6
f 166/2/6 163/2/6 167/2/6
f 165/2/6 166/2/6 167/2/6
f 167/3/6 164/3/6 168/3/6
f 165/2/6 167/2/6 169/2/6
f 167/2/6 168/2/6 169/2/6
f 169/2/6 168/2/6 170/2/6
f 165/2/6 169/2/6 171/2/6
f 169/1/6 170/1/6 171/1/6
f 170/2/6 168/2/6 172/2/6
f 171/1/6 170/1/6 172/1/6
f 159/2/6 165/2/6 173/2/6
f 61/2/6 155/2/6 173/2/6
f 171/2/6 172/2/6 173/2/6
f 165/2/6 171/2/6 173/2/6
f 155/2/6 159/2/6 173/2/6
f 173/2/6 172/2/6 174/2/6
f 61/2/6 173/2/6 175/2/6
f 173/3/6 174/3/6 175/3/6
f 175/3/6 174/3/6 176/3/6
f 174/2/6 172/2/6 177/2/6
f 176/3/6 174/3/6 177/3/6
f 177/2/6 172/2/6 178/2/6
f 172/2/6 168/2/6 179/2/6
f 178/2/6 172/2/6 179/2/6
f 179/2/6 168/2/6 180/2/6
f 175/2/6 176/2/6 181/2/6
f 61/2/6 175/2/6 181/2/6
f 177/3/6 178/3/6 182/3/6
f 181/2/6 176/2/6 182/2/6
f 176/3/6 177/3/6 182/3/6
f 178/2/6 179/2/6 183/2/6
f 182/3/6 178/3/6 183/3/6
f 179/3/6 180/3/6 184/3/6
f 183/2/6 179/2/6 184/2/6
f 180/2/6 168/2/6 185/2/6
f 184/3/6 180/3/6 185/3/6
f 185/2/6 168/2/6 186/2/6
