# MagicaVoxel @ Ephtracy

# group
o 

# material
mtllib water_open.mtl
usemtl palette

# normals
vn -1 0 0
vn 1 0 0
vn 0 0 1
vn 0 0 -1
vn 0 -1 0
vn 0 1 0

# texcoords
vt 0.00195313 0.5
vt 0.00976563 0.5
vt 0.0214844 0.5
vt 0.232422 0.5
vt 0.775391 0.5
vt 0.962891 0.5
vt 0.966797 0.5

# verts
v 0 0.1 0
v 0 0.1 -4
v 0 0.3 0
v 0 0.3 -4
v 4 0.1 0
v 4 0.1 -4
v 4 0.2 -0.5
v 4 0.2 -0.7
v 4 0.2 -3.3
v 4 0.2 -3.5
v 4 0.3 0
v 4 0.3 -0.5
v 4 0.3 -0.7
v 4 0.3 -3.3
v 4 0.3 -3.5
v 4 0.3 -4
v 0 0.1 0
v 0 0.3 0
v 4 0.1 0
v 4 0.3 0
v 0 0.1 -4
v 0 0.3 -4
v 4 0.1 -4
v 4 0.3 -4
v 0 0.1 0
v 4 0.1 0
v 1.6 0.1 -0.4
v 1.7 0.1 -0.4
v 1.8 0.1 -0.4
v 1.9 0.1 -0.4
v 1.6 0.1 -0.5
v 1.7 0.1 -0.5
v 1.8 0.1 -0.5
v 1.9 0.1 -0.5
v 0.4 0.1 -0.7
v 0.5 0.1 -0.7
v 0.3 0.1 -0.8
v 0.4 0.1 -0.8
v 0.3 0.1 -0.9
v 0.5 0.1 -0.9
v 1.3 0.1 -0.9
v 1.4 0.1 -0.9
v 1.3 0.1 -1.1
v 1.4 0.1 -1.1
v 0.9 0.1 -1.3
v 1 0.1 -1.3
v 0.9 0.1 -1.4
v 1 0.1 -1.4
v 1.7 0.1 -1.6
v 1.8 0.1 -1.6
v 1.7 0.1 -1.7
v 1.8 0.1 -1.7
v 1.3 0.1 -2.1
v 1.4 0.1 -2.1
v 0.8 0.1 -2.2
v 0.9 0.1 -2.2
v 1.3 0.1 -2.2
v 1.4 0.1 -2.2
v 0.8 0.1 -2.3
v 0.9 0.1 -2.3
v 1 0.1 -2.6
v 1.1 0.1 -2.6
v 1 0.1 -2.7
v 1.1 0.1 -2.7
v 1.3 0.1 -2.7
v 1.4 0.1 -2.7
v 1 0.1 -2.9
v 1.1 0.1 -2.9
v 1.3 0.1 -2.9
v 1.4 0.1 -2.9
v 1.3 0.1 -3
v 1.4 0.1 -3
v 0.3 0.1 -3.1
v 0.5 0.1 -3.1
v 1.3 0.1 -3.1
v 1.4 0.1 -3.1
v 0.3 0.1 -3.2
v 0.4 0.1 -3.2
v 1 0.1 -3.2
v 1.1 0.1 -3.2
v 0.4 0.1 -3.3
v 0.5 0.1 -3.3
v 0.6 0.1 -3.3
v 0.8 0.1 -3.3
v 0.6 0.1 -3.4
v 0.8 0.1 -3.4
v 1.6 0.1 -3.4
v 1.7 0.1 -3.4
v 1.6 0.1 -3.6
v 1.7 0.1 -3.6
v 0 0.1 -4
v 4 0.1 -4
v 0 0.3 0
v 4 0.3 0
v 1.2 0.3 -0.1
v 1.3 0.3 -0.1
v 2.2 0.3 -0.1
v 2.3 0.3 -0.1
v 2.6 0.3 -0.3
v 2.8 0.3 -0.3
v 3.6 0.3 -0.3
v 3.7 0.3 -0.3
v 1.6 0.3 -0.4
v 1.7 0.3 -0.4
v 1.8 0.3 -0.4
v 1.9 0.3 -0.4
v 2.2 0.3 -0.4
v 2.3 0.3 -0.4
v 2.6 0.3 -0.4
v 2.7 0.3 -0.4
v 1.2 0.3 -0.5
v 1.3 0.3 -0.5
v 1.6 0.3 -0.5
v 1.7 0.3 -0.5
v 1.8 0.3 -0.5
v 1.9 0.3 -0.5
v 3.9 0.3 -0.5
v 4 0.3 -0.5
v 2.7 0.3 -0.6
v 2.8 0.3 -0.6
v 3.6 0.3 -0.6
v 3.7 0.3 -0.6
v 0.4 0.3 -0.7
v 0.5 0.3 -0.7
v 3.9 0.3 -0.7
v 4 0.3 -0.7
v 0.3 0.3 -0.8
v 0.4 0.3 -0.8
v 0.3 0.3 -0.9
v 0.5 0.3 -0.9
v 3.3 0.3 -1
v 3.5 0.3 -1
v 1.3 0.3 -1.1
v 1.5 0.3 -1.1
v 3.3 0.3 -1.1
v 3.5 0.3 -1.1
v 0.9 0.3 -1.3
v 1 0.3 -1.3
v 1.2 0.3 -1.3
v 1.3 0.3 -1.3
v 0.9 0.3 -1.4
v 1 0.3 -1.4
v 3 0.3 -1.4
v 3.1 0.3 -1.4
v 1.4 0.3 -1.5
v 1.5 0.3 -1.5
v 3 0.3 -1.5
v 3.1 0.3 -1.5
v 3.2 0.3 -1.5
v 3.3 0.3 -1.5
v 0.3 0.3 -1.6
v 0.4 0.3 -1.6
v 1.2 0.3 -1.6
v 1.4 0.3 -1.6
v 1.7 0.3 -1.6
v 1.8 0.3 -1.6
v 3 0.3 -1.6
v 3.1 0.3 -1.6
v 3.2 0.3 -1.6
v 3.3 0.3 -1.6
v 0.1 0.3 -1.7
v 0.2 0.3 -1.7
v 1.7 0.3 -1.7
v 1.8 0.3 -1.7
v 2.7 0.3 -1.7
v 2.8 0.3 -1.7
v 3.2 0.3 -1.7
v 3.3 0.3 -1.7
v 0.3 0.3 -1.8
v 0.4 0.3 -1.8
v 2.6 0.3 -1.8
v 2.7 0.3 -1.8
v 2.6 0.3 -1.9
v 2.8 0.3 -1.9
v 3.2 0.3 -1.9
v 3.3 0.3 -1.9
v 0.1 0.3 -2
v 0.2 0.3 -2
v 1.3 0.3 -2.1
v 1.4 0.3 -2.1
v 2.6 0.3 -2.1
v 2.7 0.3 -2.1
v 0.8 0.3 -2.2
v 0.9 0.3 -2.2
v 1.3 0.3 -2.2
v 1.4 0.3 -2.2
v 2.6 0.3 -2.2
v 2.7 0.3 -2.2
v 0.8 0.3 -2.3
v 0.9 0.3 -2.3
v 3 0.3 -2.4
v 3.1 0.3 -2.4
v 3.2 0.3 -2.4
v 3.3 0.3 -2.4
v 3 0.3 -2.5
v 3.1 0.3 -2.5
v 3.2 0.3 -2.5
v 3.3 0.3 -2.5
v 1 0.3 -2.6
v 1.1 0.3 -2.6
v 3 0.3 -2.6
v 3.1 0.3 -2.6
v 1 0.3 -2.7
v 1.1 0.3 -2.7
v 2.4 0.3 -2.8
v 2.5 0.3 -2.8
v 2.2 0.3 -2.9
v 2.4 0.3 -2.9
v 2.5 0.3 -2.9
v 3.3 0.3 -2.9
v 3.5 0.3 -2.9
v 1.3 0.3 -3
v 1.4 0.3 -3
v 2.2 0.3 -3
v 2.4 0.3 -3
v 3.3 0.3 -3
v 3.5 0.3 -3
v 0.3 0.3 -3.1
v 0.5 0.3 -3.1
v 1.3 0.3 -3.1
v 1.4 0.3 -3.1
v 0.3 0.3 -3.2
v 0.4 0.3 -3.2
v 0.4 0.3 -3.3
v 0.5 0.3 -3.3
v 0.6 0.3 -3.3
v 0.8 0.3 -3.3
v 3.9 0.3 -3.3
v 4 0.3 -3.3
v 0.6 0.3 -3.4
v 0.8 0.3 -3.4
v 1.6 0.3 -3.4
v 1.7 0.3 -3.4
v 2.7 0.3 -3.4
v 2.8 0.3 -3.4
v 3.6 0.3 -3.4
v 3.7 0.3 -3.4
v 1.6 0.3 -3.5
v 1.7 0.3 -3.5
v 3.9 0.3 -3.5
v 4 0.3 -3.5
v 1.6 0.3 -3.6
v 1.7 0.3 -3.6
v 2.6 0.3 -3.6
v 2.7 0.3 -3.6
v 2.6 0.3 -3.7
v 2.8 0.3 -3.7
v 3.6 0.3 -3.7
v 3.7 0.3 -3.7
v 0 0.3 -4
v 4 0.3 -4

# faces
f 3/5/1 2/5/1 1/5/1
f 4/5/1 2/5/1 3/5/1
f 5/5/2 6/5/2 7/5/2
f 7/5/2 6/5/2 8/5/2
f 8/5/2 6/5/2 9/5/2
f 9/5/2 6/5/2 10/5/2
f 5/5/2 7/5/2 11/5/2
f 7/7/2 8/7/2 12/7/2
f 11/5/2 7/5/2 12/5/2
f 8/5/2 9/5/2 13/5/2
f 12/7/2 8/7/2 13/7/2
f 9/7/2 10/7/2 14/7/2
f 13/5/2 9/5/2 14/5/2
f 10/5/2 6/5/2 15/5/2
f 14/7/2 10/7/2 15/7/2
f 15/5/2 6/5/2 16/5/2
f 19/5/3 18/5/3 17/5/3
f 20/5/3 18/5/3 19/5/3
f 21/5/4 22/5/4 23/5/4
f 23/5/4 22/5/4 24/5/4
f 27/5/5 26/5/5 25/5/5
f 28/5/5 26/5/5 27/5/5
f 29/5/5 26/5/5 28/5/5
f 30/5/5 26/5/5 29/5/5
f 31/5/5 27/5/5 25/5/5
f 31/3/5 28/3/5 27/3/5
f 32/5/5 29/5/5 28/5/5
f 32/3/5 28/3/5 31/3/5
f 33/3/5 30/3/5 29/3/5
f 33/5/5 29/5/5 32/5/5
f 34/5/5 26/5/5 30/5/5
f 34/3/5 30/3/5 33/3/5
f 35/5/5 33/5/5 32/5/5
f 35/5/5 32/5/5 31/5/5
f 35/5/5 34/5/5 33/5/5
f 35/5/5 31/5/5 25/5/5
f 36/5/5 34/5/5 35/5/5
f 37/5/5 35/5/5 25/5/5
f 38/3/5 36/3/5 35/3/5
f 38/5/5 35/5/5 37/5/5
f 39/5/5 37/5/5 25/5/5
f 39/3/5 38/3/5 37/3/5
f 40/5/5 34/5/5 36/5/5
f 40/3/5 38/3/5 39/3/5
f 40/3/5 36/3/5 38/3/5
f 41/5/5 34/5/5 40/5/5
f 42/5/5 34/5/5 41/5/5
f 43/5/5 40/5/5 39/5/5
f 43/5/5 41/5/5 40/5/5
f 43/3/5 42/3/5 41/3/5
f 44/5/5 34/5/5 42/5/5
f 44/3/5 42/3/5 43/3/5
f 45/5/5 43/5/5 39/5/5
f 45/5/5 44/5/5 43/5/5
f 46/5/5 44/5/5 45/5/5
f 47/5/5 45/5/5 39/5/5
f 47/3/5 46/3/5 45/3/5
f 48/5/5 44/5/5 46/5/5
f 48/3/5 46/3/5 47/3/5
f 49/5/5 34/5/5 44/5/5
f 49/5/5 44/5/5 48/5/5
f 49/5/5 48/5/5 47/5/5
f 50/5/5 34/5/5 49/5/5
f 51/5/5 49/5/5 47/5/5
f 51/3/5 50/3/5 49/3/5
f 52/5/5 34/5/5 50/5/5
f 52/3/5 50/3/5 51/3/5
f 53/5/5 51/5/5 47/5/5
f 53/5/5 52/5/5 51/5/5
f 54/5/5 52/5/5 53/5/5
f 55/5/5 47/5/5 39/5/5
f 55/5/5 53/5/5 47/5/5
f 56/5/5 53/5/5 55/5/5
f 57/3/5 54/3/5 53/3/5
f 57/5/5 53/5/5 56/5/5
f 58/5/5 52/5/5 54/5/5
f 58/3/5 54/3/5 57/3/5
f 59/3/5 56/3/5 55/3/5
f 59/5/5 55/5/5 39/5/5
f 60/5/5 57/5/5 56/5/5
f 60/3/5 56/3/5 59/3/5
f 60/5/5 58/5/5 57/5/5
f 61/5/5 60/5/5 59/5/5
f 61/5/5 58/5/5 60/5/5
f 62/5/5 58/5/5 61/5/5
f 63/5/5 61/5/5 59/5/5
f 63/3/5 62/3/5 61/3/5
f 64/5/5 58/5/5 62/5/5
f 64/3/5 62/3/5 63/3/5
f 65/5/5 58/5/5 64/5/5
f 66/5/5 52/5/5 58/5/5
f 66/5/5 58/5/5 65/5/5
f 67/5/5 65/5/5 64/5/5
f 67/5/5 63/5/5 59/5/5
f 67/5/5 64/5/5 63/5/5
f 68/5/5 65/5/5 67/5/5
f 69/3/5 66/3/5 65/3/5
f 69/5/5 65/5/5 68/5/5
f 70/5/5 52/5/5 66/5/5
f 70/3/5 66/3/5 69/3/5
f 71/5/5 69/5/5 68/5/5
f 71/5/5 70/5/5 69/5/5
f 72/5/5 52/5/5 70/5/5
f 72/5/5 70/5/5 71/5/5
f 73/5/5 39/5/5 25/5/5
f 73/5/5 59/5/5 39/5/5
f 73/5/5 67/5/5 59/5/5
f 74/5/5 67/5/5 73/5/5
f 75/3/5 72/3/5 71/3/5
f 75/5/5 71/5/5 68/5/5
f 76/5/5 52/5/5 72/5/5
f 76/3/5 72/3/5 75/3/5
f 77/3/5 74/3/5 73/3/5
f 77/5/5 73/5/5 25/5/5
f 78/3/5 74/3/5 77/3/5
f 79/5/5 67/5/5 74/5/5
f 79/3/5 68/3/5 67/3/5
f 80/5/5 75/5/5 68/5/5
f 80/3/5 68/3/5 79/3/5
f 80/5/5 76/5/5 75/5/5
f 81/3/5 74/3/5 78/3/5
f 81/5/5 78/5/5 77/5/5
f 82/5/5 79/5/5 74/5/5
f 82/3/5 74/3/5 81/3/5
f 82/5/5 80/5/5 79/5/5
f 83/5/5 80/5/5 82/5/5
f 84/5/5 80/5/5 83/5/5
f 85/5/5 82/5/5 81/5/5
f 85/5/5 83/5/5 82/5/5
f 85/3/5 84/3/5 83/3/5
f 86/5/5 80/5/5 84/5/5
f 86/3/5 84/3/5 85/3/5
f 87/5/5 76/5/5 80/5/5
f 87/5/5 80/5/5 86/5/5
f 87/5/5 52/5/5 76/5/5
f 88/5/5 52/5/5 87/5/5
f 89/5/5 86/5/5 85/5/5
f 89/5/5 87/5/5 86/5/5
f 89/3/5 88/3/5 87/3/5
f 90/5/5 52/5/5 88/5/5
f 90/3/5 88/3/5 89/3/5
f 91/5/5 81/5/5 77/5/5
f 91/5/5 89/5/5 85/5/5
f 91/5/5 90/5/5 89/5/5
f 91/5/5 77/5/5 25/5/5
f 91/5/5 85/5/5 81/5/5
f 92/5/5 26/5/5 34/5/5
f 92/5/5 90/5/5 91/5/5
f 92/5/5 52/5/5 90/5/5
f 92/5/5 34/5/5 52/5/5
f 93/5/6 94/5/6 95/5/6
f 95/5/6 94/5/6 96/5/6
f 96/5/6 94/5/6 97/5/6
f 97/5/6 94/5/6 98/5/6
f 98/5/6 94/5/6 99/5/6
f 99/5/6 94/5/6 100/5/6
f 100/5/6 94/5/6 101/5/6
f 101/5/6 94/5/6 102/5/6
f 96/5/6 97/5/6 103/5/6
f 103/5/6 97/5/6 104/5/6
f 104/5/6 97/5/6 105/5/6
f 105/5/6 97/5/6 106/5/6
f 97/4/6 98/4/6 107/4/6
f 106/5/6 97/5/6 107/5/6
f 98/5/6 99/5/6 108/5/6
f 107/4/6 98/4/6 108/4/6
f 99/2/6 100/2/6 109/2/6
f 108/5/6 99/5/6 109/5/6
f 109/2/6 100/2/6 110/2/6
f 93/5/6 95/5/6 111/5/6
f 95/6/6 96/6/6 111/6/6
f 96/5/6 103/5/6 112/5/6
f 111/6/6 96/6/6 112/6/6
f 103/3/6 104/3/6 113/3/6
f 112/5/6 103/5/6 113/5/6
f 104/5/6 105/5/6 114/5/6
f 113/3/6 104/3/6 114/3/6
f 105/2/6 106/2/6 115/2/6
f 114/5/6 105/5/6 115/5/6
f 109/5/6 110/5/6 116/5/6
f 115/2/6 106/2/6 116/2/6
f 106/5/6 107/5/6 116/5/6
f 108/5/6 109/5/6 116/5/6
f 107/5/6 108/5/6 116/5/6
f 102/5/6 94/5/6 117/5/6
f 117/5/6 94/5/6 118/5/6
f 110/2/6 100/2/6 119/2/6
f 114/5/6 115/5/6 119/5/6
f 116/5/6 110/5/6 119/5/6
f 113/5/6 114/5/6 119/5/6
f 115/5/6 116/5/6 119/5/6
f 112/5/6 113/5/6 119/5/6
f 111/5/6 112/5/6 119/5/6
f 100/5/6 101/5/6 120/5/6
f 119/2/6 100/2/6 120/2/6
f 101/2/6 102/2/6 121/2/6
f 120/5/6 101/5/6 121/5/6
f 102/5/6 117/5/6 122/5/6
f 121/2/6 102/2/6 122/2/6
f 120/5/6 121/5/6 123/5/6
f 93/5/6 111/5/6 123/5/6
f 121/5/6 122/5/6 123/5/6
f 111/5/6 119/5/6 123/5/6
f 119/5/6 120/5/6 123/5/6
f 123/5/6 122/5/6 124/5/6
f 117/7/6 118/7/6 125/7/6
f 124/5/6 122/5/6 125/5/6
f 122/5/6 117/5/6 125/5/6
f 125/7/6 118/7/6 126/7/6
f 93/5/6 123/5/6 127/5/6
f 123/1/6 124/1/6 128/1/6
f 127/5/6 123/5/6 128/5/6
f 93/5/6 127/5/6 129/5/6
f 127/1/6 128/1/6 129/1/6
f 128/1/6 124/1/6 130/1/6
f 129/1/6 128/1/6 130/1/6
f 124/5/6 125/5/6 130/5/6
f 125/5/6 126/5/6 130/5/6
f 129/5/6 130/5/6 131/5/6
f 130/5/6 126/5/6 131/5/6
f 131/5/6 126/5/6 132/5/6
f 129/5/6 131/5/6 133/5/6
f 133/5/6 131/5/6 134/5/6
f 131/2/6 132/2/6 135/2/6
f 134/5/6 131/5/6 135/5/6
f 132/5/6 126/5/6 136/5/6
f 135/2/6 132/2/6 136/2/6
f 129/5/6 133/5/6 137/5/6
f 137/5/6 133/5/6 138/5/6
f 138/5/6 133/5/6 139/5/6
f 133/6/6 134/6/6 140/6/6
f 139/5/6 133/5/6 140/5/6
f 129/5/6 137/5/6 141/5/6
f 137/3/6 138/3/6 141/3/6
f 138/5/6 139/5/6 142/5/6
f 141/3/6 138/3/6 142/3/6
f 134/5/6 135/5/6 143/5/6
f 135/5/6 136/5/6 143/5/6
f 143/5/6 136/5/6 144/5/6
f 140/6/6 134/6/6 145/6/6
f 139/6/6 140/6/6 145/6/6
f 134/5/6 143/5/6 146/5/6
f 145/6/6 134/6/6 146/6/6
f 143/7/6 144/7/6 147/7/6
f 146/5/6 143/5/6 147/5/6
f 144/5/6 136/5/6 148/5/6
f 147/7/6 144/7/6 148/7/6
f 148/5/6 136/5/6 149/5/6
f 149/5/6 136/5/6 150/5/6
f 93/5/6 129/5/6 151/5/6
f 129/5/6 141/5/6 151/5/6
f 141/5/6 142/5/6 151/5/6
f 151/5/6 142/5/6 152/5/6
f 142/5/6 139/5/6 153/5/6
f 152/5/6 142/5/6 153/5/6
f 139/6/6 145/6/6 153/6/6
f 146/5/6 147/5/6 154/5/6
f 153/6/6 145/6/6 154/6/6
f 145/5/6 146/5/6 154/5/6
f 154/5/6 147/5/6 155/5/6
f 155/5/6 147/5/6 156/5/6
f 147/2/6 148/2/6 157/2/6
f 156/5/6 147/5/6 157/5/6
f 148/5/6 149/5/6 158/5/6
f 157/2/6 148/2/6 158/2/6
f 149/7/6 150/7/6 159/7/6
f 158/5/6 149/5/6 159/5/6
f 150/5/6 136/5/6 160/5/6
f 159/7/6 150/7/6 160/7/6
f 93/5/6 151/5/6 161/5/6
f 161/5/6 151/5/6 162/5/6
f 152/5/6 153/5/6 163/5/6
f 155/1/6 156/1/6 163/1/6
f 153/5/6 154/5/6 163/5/6
f 154/5/6 155/5/6 163/5/6
f 158/5/6 159/5/6 164/5/6
f 163/1/6 156/1/6 164/1/6
f 157/5/6 158/5/6 164/5/6
f 159/5/6 160/5/6 164/5/6
f 156/5/6 157/5/6 164/5/6
f 164/5/6 160/5/6 165/5/6
f 165/5/6 160/5/6 166/5/6
f 166/5/6 160/5/6 167/5/6
f 160/5/6 136/5/6 168/5/6
f 167/5/6 160/5/6 168/5/6
f 151/6/6 152/6/6 169/6/6
f 162/5/6 151/5/6 169/5/6
f 152/5/6 163/5/6 170/5/6
f 169/6/6 152/6/6 170/6/6
f 163/5/6 164/5/6 170/5/6
f 164/5/6 165/5/6 170/5/6
f 170/5/6 165/5/6 171/5/6
f 165/1/6 166/1/6 172/1/6
f 171/5/6 165/5/6 172/5/6
f 170/5/6 171/5/6 173/5/6
f 169/5/6 170/5/6 173/5/6
f 171/1/6 172/1/6 173/1/6
f 166/5/6 167/5/6 174/5/6
f 173/1/6 172/1/6 174/1/6
f 172/1/6 166/1/6 174/1/6
f 167/2/6 168/2/6 175/2/6
f 174/5/6 167/5/6 175/5/6
f 168/5/6 136/5/6 176/5/6
f 175/2/6 168/2/6 176/2/6
f 93/5/6 161/5/6 177/5/6
f 161/6/6 162/6/6 177/6/6
f 162/5/6 169/5/6 178/5/6
f 177/6/6 162/6/6 178/6/6
f 174/5/6 175/5/6 178/5/6
f 175/5/6 176/5/6 178/5/6
f 173/5/6 174/5/6 178/5/6
f 169/5/6 173/5/6 178/5/6
f 177/5/6 178/5/6 179/5/6
f 178/5/6 176/5/6 179/5/6
f 179/5/6 176/5/6 180/5/6
f 180/5/6 176/5/6 181/5/6
f 181/5/6 176/5/6 182/5/6
f 177/5/6 179/5/6 183/5/6
f 183/5/6 179/5/6 184/5/6
f 179/3/6 180/3/6 185/3/6
f 184/5/6 179/5/6 185/5/6
f 180/5/6 181/5/6 186/5/6
f 185/3/6 180/3/6 186/3/6
f 181/1/6 182/1/6 187/1/6
f 186/5/6 181/5/6 187/5/6
f 182/5/6 176/5/6 188/5/6
f 187/1/6 182/1/6 188/1/6
f 183/2/6 184/2/6 189/2/6
f 177/5/6 183/5/6 189/5/6
f 186/5/6 187/5/6 190/5/6
f 189/2/6 184/2/6 190/2/6
f 184/5/6 185/5/6 190/5/6
f 187/5/6 188/5/6 190/5/6
f 185/5/6 186/5/6 190/5/6
f 188/5/6 176/5/6 191/5/6
f 190/5/6 188/5/6 191/5/6
f 189/5/6 190/5/6 191/5/6
f 191/5/6 176/5/6 192/5/6
f 192/5/6 176/5/6 193/5/6
f 176/5/6 136/5/6 194/5/6
f 193/5/6 176/5/6 194/5/6
f 189/5/6 191/5/6 195/5/6
f 191/2/6 192/2/6 195/2/6
f 192/5/6 193/5/6 196/5/6
f 195/2/6 192/2/6 196/2/6
f 193/7/6 194/7/6 197/7/6
f 196/5/6 193/5/6 197/5/6
f 194/5/6 136/5/6 198/5/6
f 197/7/6 194/7/6 198/7/6
f 189/5/6 195/5/6 199/5/6
f 199/5/6 195/5/6 200/5/6
f 195/7/6 196/7/6 201/7/6
f 200/5/6 195/5/6 201/5/6
f 196/5/6 197/5/6 202/5/6
f 201/7/6 196/7/6 202/7/6
f 197/5/6 198/5/6 202/5/6
f 199/7/6 200/7/6 203/7/6
f 189/5/6 199/5/6 203/5/6
f 200/5/6 201/5/6 204/5/6
f 203/7/6 200/7/6 204/7/6
f 201/5/6 202/5/6 204/5/6
f 203/5/6 204/5/6 205/5/6
f 204/5/6 202/5/6 205/5/6
f 205/5/6 202/5/6 206/5/6
f 203/5/6 205/5/6 207/5/6
f 205/2/6 206/2/6 208/2/6
f 207/5/6 205/5/6 208/5/6
f 206/5/6 202/5/6 209/5/6
f 208/2/6 206/2/6 209/2/6
f 198/5/6 136/5/6 210/5/6
f 209/5/6 202/5/6 210/5/6
f 202/5/6 198/5/6 210/5/6
f 136/5/6 126/5/6 211/5/6
f 210/5/6 136/5/6 211/5/6
f 203/5/6 207/5/6 212/5/6
f 212/5/6 207/5/6 213/5/6
f 207/2/6 208/2/6 214/2/6
f 213/5/6 207/5/6 214/5/6
f 209/5/6 210/5/6 215/5/6
f 214/2/6 208/2/6 215/2/6
f 208/5/6 209/5/6 215/5/6
f 210/2/6 211/2/6 216/2/6
f 215/5/6 210/5/6 216/5/6
f 211/5/6 126/5/6 217/5/6
f 216/2/6 211/2/6 217/2/6
f 203/5/6 212/5/6 218/5/6
f 177/5/6 189/5/6 218/5/6
f 189/5/6 203/5/6 218/5/6
f 218/5/6 212/5/6 219/5/6
f 212/2/6 213/2/6 220/2/6
f 219/5/6 212/5/6 220/5/6
f 213/5/6 214/5/6 221/5/6
f 220/2/6 213/2/6 221/2/6
f 216/5/6 217/5/6 221/5/6
f 214/5/6 215/5/6 221/5/6
f 215/5/6 216/5/6 221/5/6
f 177/5/6 218/5/6 222/5/6
f 218/1/6 219/1/6 222/1/6
f 222/1/6 219/1/6 223/1/6
f 222/5/6 223/5/6 224/5/6
f 223/1/6 219/1/6 224/1/6
f 219/5/6 220/5/6 225/5/6
f 224/1/6 219/1/6 225/1/6
f 220/5/6 221/5/6 225/5/6
f 225/5/6 221/5/6 226/5/6
f 226/5/6 221/5/6 227/5/6
f 217/5/6 126/5/6 228/5/6
f 227/5/6 221/5/6 228/5/6
f 221/5/6 217/5/6 228/5/6
f 228/5/6 126/5/6 229/5/6
f 226/1/6 227/1/6 230/1/6
f 225/5/6 226/5/6 230/5/6
f 224/5/6 225/5/6 230/5/6
f 227/5/6 228/5/6 231/5/6
f 230/1/6 227/1/6 231/1/6
f 231/5/6 228/5/6 232/5/6
f 232/5/6 228/5/6 233/5/6
f 233/5/6 228/5/6 234/5/6
f 234/5/6 228/5/6 235/5/6
f 235/5/6 228/5/6 236/5/6
f 236/5/6 228/5/6 237/5/6
f 230/5/6 231/5/6 238/5/6
f 231/5/6 232/5/6 238/5/6
f 232/2/6 233/2/6 238/2/6
f 233/5/6 234/5/6 239/5/6
f 238/2/6 233/2/6 239/2/6
f 228/7/6 229/7/6 240/7/6
f 237/5/6 228/5/6 240/5/6
f 240/7/6 229/7/6 241/7/6
f 238/3/6 239/3/6 242/3/6
f 230/5/6 238/5/6 242/5/6
f 239/5/6 234/5/6 243/5/6
f 242/3/6 239/3/6 243/3/6
f 243/5/6 234/5/6 244/5/6
f 234/2/6 235/2/6 245/2/6
f 244/5/6 234/5/6 245/5/6
f 243/5/6 244/5/6 246/5/6
f 242/5/6 243/5/6 246/5/6
f 244/2/6 245/2/6 246/2/6
f 235/5/6 236/5/6 247/5/6
f 246/2/6 245/2/6 247/2/6
f 245/2/6 235/2/6 247/2/6
f 236/2/6 237/2/6 248/2/6
f 247/5/6 236/5/6 248/5/6
f 240/5/6 241/5/6 249/5/6
f 248/2/6 237/2/6 249/2/6
f 237/5/6 240/5/6 249/5/6
f 93/5/6 177/5/6 250/5/6
f 222/5/6 224/5/6 250/5/6
f 248/5/6 249/5/6 250/5/6
f 247/5/6 248/5/6 250/5/6
f 242/5/6 246/5/6 250/5/6
f 246/5/6 247/5/6 250/5/6
f 230/5/6 242/5/6 250/5/6
f 224/5/6 230/5/6 250/5/6
f 177/5/6 222/5/6 250/5/6
f 249/5/6 241/5/6 251/5/6
f 250/5/6 249/5/6 251/5/6
